<svg width="1238" height="820" viewBox="0 0 1238 820" fill="none" xmlns="http://www.w3.org/2000/svg">
<g filter="url(#filter0_d_1_180)">
<path d="M59 53H1179V755H59V53Z" fill="#FFE0E2"/>
</g>
<path fill-rule="evenodd" clip-rule="evenodd" d="M745.796 77.8493L741.688 75L732 88.9696L736.109 91.8189L745.796 77.8493ZM214.121 92L219.082 92.6239L216.961 109.491L212 108.867L214.121 92ZM132.722 114L135.222 118.33L120.5 126.83L118 122.5L132.722 114ZM334.688 209L338.796 211.849L329.109 225.819L325 222.97L334.688 209ZM281.082 154.624L276.121 154L274 170.867L278.961 171.491L281.082 154.624ZM106.563 169L103 172.508L114.928 184.621L118.491 181.113L106.563 169ZM906.722 221L909.222 225.33L894.5 233.83L892 229.5L906.722 221ZM1116.22 112.33L1113.72 108L1099 116.5L1101.5 120.83L1116.22 112.33ZM1058.12 273L1063.08 273.624L1060.96 290.491L1056 289.867L1058.12 273ZM1110.08 485.624L1105.12 485L1103 501.867L1107.96 502.491L1110.08 485.624ZM924 352.508L927.563 349L939.491 361.113L935.928 364.621L924 352.508ZM778.563 365L775 368.508L786.928 380.621L790.491 377.113L778.563 365ZM278.397 282.537L276 278.149L290.92 270L293.316 274.388L278.397 282.537ZM196.384 291.228L201.329 291.969L203.849 275.157L198.905 274.416L196.384 291.228ZM107.945 256.553L103 255.812L105.52 239L110.465 239.741L107.945 256.553ZM566 448.812L570.945 449.553L573.465 432.741L568.52 432L566 448.812ZM627.308 616.004L624.736 620.292L610.157 611.549L612.729 607.261L627.308 616.004ZM377.638 275.815L381.282 272.392L369.645 260L366 263.423L377.638 275.815ZM481.303 104L485.412 106.849L475.724 120.819L471.616 117.97L481.303 104ZM466.397 275.537L464 271.149L478.92 263L481.316 267.388L466.397 275.537ZM332 114.149L334.397 118.537L349.316 110.388L346.92 106L332 114.149ZM391.945 172.969L387 172.228L389.52 155.416L394.465 156.157L391.945 172.969ZM562.638 127.815L566.282 124.392L554.645 112L551 115.423L562.638 127.815ZM205.093 493.542L200 492.823L202.516 476L207.609 476.719L205.093 493.542ZM132.228 419.308L128.007 416.449L118 430.394L122.221 433.254L132.228 419.308ZM243 339.541L247.896 338L253.287 354.173L248.391 355.713L243 339.541ZM619.896 356L615 357.541L620.391 373.713L625.287 372.173L619.896 356ZM976.397 126.537L974 122.149L988.92 114L991.316 118.388L976.397 126.537ZM1033.15 196.299L1038.14 195.961L1036.99 179L1032 179.338L1033.15 196.299ZM885.329 124.969L880.384 124.228L882.905 107.416L887.849 108.157L885.329 124.969ZM800.938 226.101L803.374 221.734L788.527 213.453L786.091 217.819L800.938 226.101ZM1064.94 598.553L1060 597.812L1062.52 581L1067.46 581.741L1064.94 598.553ZM962.896 263L958 264.541L963.391 280.713L968.287 279.173L962.896 263ZM853 410.541L857.896 409L863.287 425.173L858.391 426.713L853 410.541ZM357.788 539L356 543.688L372.408 549.594L374.195 544.905L357.788 539ZM357.225 372.696L360.916 369.296L372.97 381.897L369.28 385.297L357.225 372.696ZM385.1 385.632L383.444 380.895L367.095 386.962L368.752 391.698L385.1 385.632Z" fill="#FFEFF0"/>
<path fill-rule="evenodd" clip-rule="evenodd" d="M820.615 132.961C821.747 127.894 827.332 125.231 831.982 127.54L852.44 137.703C855.817 139.38 857.565 143.188 856.633 146.843L851.669 166.323C850.537 170.765 845.912 173.349 841.536 171.985L820.859 165.539C816.885 164.3 814.525 160.22 815.432 156.157L820.615 132.961ZM147.827 198.02C145.881 202.84 148.976 208.206 154.121 208.935L207.028 216.44C211.223 217.035 215.155 214.256 215.993 210.102L223.865 171.102C224.759 166.671 221.807 162.379 217.349 161.63L172.338 154.065C168.636 153.443 164.999 155.478 163.594 158.96L147.827 198.02ZM1036.99 327.968C1035.16 332.828 1038.38 338.118 1043.53 338.733L1107.97 346.419C1112.09 346.91 1115.89 344.179 1116.75 340.124L1129.49 279.644C1130.44 275.142 1127.4 270.77 1122.85 270.084L1068.65 261.916C1064.91 261.354 1061.3 263.475 1059.97 267.005L1036.99 327.968ZM414.628 455.366C413.679 460.47 408.193 463.332 403.464 461.19L338.073 431.583C334.637 430.028 332.755 426.285 333.554 422.599L347.007 360.592C347.979 356.112 352.509 353.363 356.931 354.57L422.582 372.48C426.598 373.576 429.103 377.568 428.341 381.661L414.628 455.366ZM173.682 728.255C175.778 733.12 181.937 734.641 186.057 731.312L222.845 701.589C225.864 699.15 226.697 694.896 224.821 691.499L187.006 623.017C184.675 618.795 179.167 617.58 175.276 620.43L143.894 643.414C140.886 645.617 139.799 649.608 141.274 653.033L173.682 728.255ZM883.603 552.139C879.347 555.119 873.425 553.315 871.552 548.47L864.175 529.377C862.814 525.857 864.099 521.865 867.257 519.799L880.669 511.025C884.527 508.501 889.715 509.752 891.998 513.757L901.633 530.653C903.679 534.242 902.656 538.799 899.271 541.169L883.603 552.139ZM1103.03 725.347C1108.33 725.521 1112.32 720.598 1111.07 715.455L1099.62 668.575C1098.58 664.282 1094.25 661.652 1089.96 662.7L1071.06 667.313C1066.82 668.348 1064.19 672.59 1065.16 676.847L1074.55 718.427C1075.35 721.979 1078.45 724.541 1082.09 724.661L1103.03 725.347ZM157.56 304.804C157.453 299.613 152.506 295.898 147.491 297.242L124.533 303.395C120.512 304.473 117.989 308.454 118.732 312.551L122.599 333.861C123.417 338.371 127.85 341.273 132.311 340.218L151.874 335.593C155.544 334.725 158.11 331.413 158.032 327.643L157.56 304.804Z" fill="#FFE6E7"/>
<g clip-path="url(#clip0_1_180)">
<path d="M117.909 321.449L130.695 369.793L160.843 360.928L148.057 312.584L117.909 321.449Z" fill="#362E2D"/>
<path d="M115.2 324.759L117.8 321.701L146.5 316.535L159.3 360.083L148.5 385.706L128.3 371.787L115.2 324.759Z" fill="white"/>
<path d="M136.8 343.423L149.6 387.709L127.9 373.052L115.2 324.759L136.8 343.423Z" fill="#4E3734"/>
<path d="M117.8 322.545L144.6 321.49L157.6 364.09L159.3 360.083L146.5 316.535L118.6 321.49L117.8 322.545Z" fill="#F7F7F7"/>
<path d="M237.9 393.087C254.745 393.087 268.4 378.688 268.4 360.926C268.4 343.165 254.745 328.766 237.9 328.766C221.055 328.766 207.4 343.165 207.4 360.926C207.4 378.688 221.055 393.087 237.9 393.087Z" fill="#8C503E"/>
<path d="M377.2 665.342C377.2 665.342 381 675.36 382.7 680.843C384.4 686.326 387.4 693.18 389.9 693.39C392.4 693.601 392.9 683.373 391.3 667.768C389.7 652.267 390.9 650.053 382.8 650.159C379.2 650.159 377.2 649.842 377.2 649.842V665.342Z" fill="#FF6ED9"/>
<path d="M153.2 719.54C153.2 719.54 142.3 721.333 136.6 723.758C130.9 726.183 126.5 728.609 126.5 731.561C126.5 733.881 136.9 733.143 153.1 733.143C169.7 733.248 174.4 733.67 171.5 724.813C170.5 721.755 167.9 719.224 167.9 719.224L153.2 719.54Z" fill="#FF6ED9"/>
<path d="M268.4 360.926C268.4 343.106 254.7 328.766 237.9 328.766C233.3 328.766 228.9 329.82 225 331.824L224.2 332.246C223.2 334.249 222.6 336.463 222.6 338.889C222.6 346.586 228.5 352.807 235.8 352.807C236.4 352.807 237 352.702 237.7 352.702C236.9 353.756 236.5 355.127 236.5 356.603C236.5 359.872 238.9 362.613 241.9 363.035C241.6 363.879 241.5 364.722 241.5 365.566C241.5 369.573 244.6 372.841 248.4 372.841H248.5C249.1 375.794 251.5 377.903 254.5 377.903C255.3 377.903 256.1 377.692 256.8 377.481C257.2 379.695 259.1 381.382 261.3 381.382L263 379.695C266.3 374.423 268.4 367.886 268.4 360.926Z" fill="#4E3734"/>
<path d="M146.8 398.781C146.8 398.781 147.4 388.342 144.5 382.753C141.6 377.165 135.4 374.107 132.5 369.256C129.7 364.406 129.8 357.763 127.1 357.13C124.4 356.498 119.9 367.886 122.8 373.369C125.6 378.852 129.2 382.437 131 388.025C132.8 393.614 135.6 398.57 137.3 400.151C139.1 401.733 146.8 398.781 146.8 398.781Z" fill="#8C503E"/>
<path d="M317.3 524.153C317.3 524.153 320.8 533.96 325.7 537.755C330.5 541.551 337.4 541.657 341.9 544.926C346.4 548.089 348.8 554.205 351.5 553.572C354.2 552.939 353.8 540.602 349.1 536.912C344.4 533.116 339.7 531.429 335.9 527.106C332.1 522.782 327.6 519.514 325.4 518.776C323.2 518.038 317.3 524.153 317.3 524.153Z" fill="#8C503E"/>
<path d="M201.2 545.769C201.2 545.769 181.7 588.685 173.2 622.005C162 666.08 153.2 719.646 153.2 719.646L167.8 719.435C167.8 719.435 185.5 697.714 211.1 653.744C236.9 609.352 248.6 581.198 248.6 581.198C248.6 581.198 265.9 646.995 277.2 657.329C293 671.774 329.9 671.142 341.6 670.298C353.3 669.455 377.1 665.448 377.1 665.448V649.948C377.1 649.948 347.1 644.886 335.1 639.614C323.1 634.342 308.8 630.019 308.8 630.019C308.8 630.019 304 594.801 300.5 576.137C297 557.473 292.2 536.068 292.2 536.068L201.2 545.769Z" fill="#5441AF"/>
<path d="M248.7 581.093L254.5 568.229C254.5 568.229 257.8 575.083 257.4 583.834C257.1 592.586 255.3 604.29 255.3 604.29L248.7 581.093Z" fill="#4F3D9D"/>
<path d="M111 413.754C111 413.754 116.2 413.965 124.7 419.764C143.7 432.734 149.9 460.782 172.9 464.894C192.2 468.374 204.7 462.258 204.7 462.258C204.7 462.258 197.2 484.928 195.2 495.262C193.2 505.595 193.4 524.259 185.4 532.483C177.4 540.708 173.7 544.609 173.7 544.609C173.7 544.609 208.7 551.252 237 545.664C265.3 540.075 280.7 538.072 285.8 538.283C291 538.494 299 539.548 299 539.548C299 539.548 295.8 531.956 292.8 524.259C289.8 516.561 289.1 508.758 289.1 508.758C289.1 508.758 308.1 524.786 311.1 530.058C314.1 535.33 314.6 544.082 314.6 544.082C314.6 544.082 318.9 534.276 321.9 530.902C324.9 527.527 327.2 523.521 330.9 520.568C334.6 517.616 336.7 515.296 336.7 515.296C336.7 515.296 332.7 515.612 329.2 512.344C325.7 508.969 306 483.557 302 479.445C298 475.438 283 458.145 283 458.145C283 458.145 281.2 403.104 250.3 404.158C230.8 404.791 219.5 409.958 207.1 417.022C194.8 424.087 183.9 431.785 183.9 431.785C183.9 431.785 162.9 418.393 155.6 402.366C153.1 396.988 152 392.981 152 392.981C152 392.981 144.3 394.457 133.7 399.941C122.4 405.951 111 413.754 111 413.754Z" fill="#FF353A"/>
<path d="M204.7 462.258C204.7 462.258 215.6 461.941 225.9 458.673C236.2 455.298 247.3 450.132 250 443.489C252.7 436.846 253.9 430.097 253.9 430.097C253.9 430.097 255.8 441.169 251.4 451.608C247 462.047 232.8 467.108 227.5 469.112C222.2 471.115 200.8 474.7 200.8 474.7L204.7 462.258Z" fill="#E2303D"/>
<path d="M284.2 469.955C284.2 469.955 285.8 488.513 286.5 493.996C287.2 499.479 289.3 508.969 289.3 508.969L294.5 513.398C294.5 513.398 290.8 501.694 289.4 493.364C287.8 485.034 284.2 469.955 284.2 469.955Z" fill="#E2303D"/>
<path d="M245.4 538.494C241.9 538.494 239.1 535.541 239.1 531.851C239.1 528.16 241.9 525.208 245.4 525.208C248.9 525.208 251.7 528.16 251.7 531.851C251.7 535.541 248.9 538.494 245.4 538.494ZM245.4 526.262C242.5 526.262 240.1 528.793 240.1 531.851C240.1 534.909 242.5 537.439 245.4 537.439C248.3 537.439 250.7 534.909 250.7 531.851C250.7 528.793 248.4 526.262 245.4 526.262Z" fill="#5441AF"/>
<path d="M273 432.101C275 432.101 276.8 431.046 278 429.465C277.9 429.043 277.7 428.621 277.6 428.199C276.7 429.887 275 430.941 273.1 430.941C270.2 430.941 267.8 428.41 267.8 425.352C267.8 422.295 270.2 419.764 273.1 419.764C273.4 419.764 273.7 419.764 274 419.869C273.8 419.448 273.6 419.131 273.4 418.71C273.3 418.71 273.2 418.71 273.1 418.71C269.6 418.71 266.8 421.662 266.8 425.352C266.8 429.043 269.5 432.101 273 432.101Z" fill="#5441AF"/>
<path d="M190.6 541.446C195.6 541.446 199.7 537.123 199.7 531.851C199.7 526.578 195.7 522.361 190.7 522.255C190.6 522.572 190.5 522.993 190.4 523.31C190.5 523.31 190.5 523.31 190.6 523.31C195.1 523.31 198.7 527.106 198.7 531.851C198.7 536.596 195.1 540.392 190.6 540.392C187.2 540.392 184.2 538.072 183 534.908C182.7 535.225 182.5 535.436 182.2 535.752C183.7 539.126 186.9 541.446 190.6 541.446Z" fill="#5441AF"/>
<path d="M215 436.951C211 436.951 207.8 433.577 207.8 429.359C207.8 425.142 211 421.767 215 421.767C219 421.767 222.2 425.142 222.2 429.359C222.2 433.577 218.9 436.951 215 436.951ZM215 422.927C211.6 422.927 208.8 425.88 208.8 429.465C208.8 433.05 211.6 436.002 215 436.002C218.4 436.002 221.2 433.05 221.2 429.465C221.2 425.88 218.4 422.927 215 422.927Z" fill="#5441AF"/>
<path d="M157.8 422.927C155.3 422.927 153.2 420.713 153.2 418.077C153.2 415.441 155.3 413.226 157.8 413.226C160.3 413.226 162.4 415.441 162.4 418.077C162.4 420.713 160.3 422.927 157.8 422.927ZM157.8 414.281C155.8 414.281 154.2 415.968 154.2 418.077C154.2 420.186 155.8 421.873 157.8 421.873C159.8 421.873 161.4 420.186 161.4 418.077C161.4 415.968 159.8 414.281 157.8 414.281Z" fill="#5441AF"/>
<path d="M305.9 483.874C305.3 485.034 304.1 485.772 302.8 485.772C300.8 485.772 299.2 484.085 299.2 481.976C299.2 480.5 300 479.234 301.2 478.602C301 478.391 300.7 478.074 300.5 477.863C299.1 478.707 298.2 480.289 298.2 482.081C298.2 484.717 300.3 486.932 302.8 486.932C304.4 486.932 305.8 486.088 306.6 484.823C306.4 484.401 306.2 484.085 305.9 483.874Z" fill="#5441AF"/>
<path d="M257.4 472.169C254.9 472.169 252.8 469.955 252.8 467.319C252.8 464.683 254.9 462.469 257.4 462.469C259.9 462.469 262 464.683 262 467.319C262 469.955 260 472.169 257.4 472.169ZM257.4 463.628C255.4 463.628 253.8 465.316 253.8 467.424C253.8 469.533 255.4 471.22 257.4 471.22C259.4 471.22 261 469.533 261 467.424C261 465.316 259.4 463.628 257.4 463.628Z" fill="#5441AF"/>
<path d="M125.2 415.335C123.6 415.335 122.2 416.39 121.5 417.761C121.8 417.971 122.1 418.077 122.4 418.288C122.9 417.128 124 416.39 125.2 416.39C126.9 416.39 128.3 417.866 128.3 419.659C128.3 420.502 128 421.346 127.4 421.873C127.7 422.084 127.9 422.295 128.2 422.505C128.9 421.767 129.3 420.713 129.3 419.659C129.3 417.233 127.5 415.335 125.2 415.335Z" fill="#5441AF"/>
<path d="M209.2 495.367C206.2 495.367 203.8 492.836 203.8 489.673C203.8 486.51 206.2 483.979 209.2 483.979C212.2 483.979 214.6 486.51 214.6 489.673C214.6 492.836 212.2 495.367 209.2 495.367ZM209.2 484.928C206.8 484.928 204.8 487.037 204.8 489.568C204.8 492.098 206.8 494.207 209.2 494.207C211.6 494.207 213.6 492.098 213.6 489.568C213.6 487.037 211.7 484.928 209.2 484.928Z" fill="#5441AF"/>
<path d="M307.9 517.721C305.7 517.721 303.8 519.092 302.9 521.095C303.2 521.306 303.4 521.623 303.7 521.833C304.3 520.041 305.9 518.67 307.9 518.67C310.3 518.67 312.3 520.779 312.3 523.31C312.3 525.313 311.1 527 309.4 527.633C309.7 527.949 309.9 528.16 310.1 528.476C312 527.527 313.3 525.629 313.3 523.31C313.3 520.252 310.9 517.721 307.9 517.721Z" fill="#5441AF"/>
<path d="M192.5 456.247C190.2 456.247 188.4 454.349 188.4 451.924C188.4 449.499 190.2 447.601 192.5 447.601C194.8 447.601 196.6 449.499 196.6 451.924C196.6 454.349 194.8 456.247 192.5 456.247ZM192.5 448.656C190.8 448.656 189.4 450.132 189.4 451.924C189.4 453.717 190.8 455.193 192.5 455.193C194.2 455.193 195.6 453.717 195.6 451.924C195.6 450.132 194.2 448.656 192.5 448.656Z" fill="#5441AF"/>
<path d="M273 509.075C269.8 509.075 267.3 506.333 267.3 503.065C267.3 499.796 269.9 497.054 273 497.054C276.1 497.054 278.7 499.796 278.7 503.065C278.7 506.333 276.2 509.075 273 509.075ZM273 498.003C270.4 498.003 268.3 500.218 268.3 502.959C268.3 505.701 270.4 507.915 273 507.915C275.6 507.915 277.7 505.701 277.7 502.959C277.7 500.218 275.6 498.003 273 498.003Z" fill="#5441AF"/>
<path d="M232.9 506.228C231.2 506.228 229.9 504.752 229.9 503.064C229.9 501.272 231.3 499.901 232.9 499.901C234.5 499.901 235.9 501.377 235.9 503.064C235.9 504.752 234.6 506.228 232.9 506.228ZM232.9 500.85C231.8 500.85 230.9 501.799 230.9 502.959C230.9 504.119 231.8 505.068 232.9 505.068C234 505.068 234.9 504.119 234.9 502.959C234.9 501.799 234 500.85 232.9 500.85Z" fill="#5441AF"/>
<path d="M160.3 459.516C161.1 458.462 161.6 457.091 161.6 455.509C161.6 451.819 158.8 448.866 155.3 448.866C153.7 448.866 152.2 449.499 151.1 450.554C151.3 450.87 151.6 451.081 151.8 451.397C152.7 450.554 154 449.921 155.3 449.921C158.2 449.921 160.6 452.451 160.6 455.509C160.6 456.775 160.2 457.935 159.5 458.884C159.7 459.094 160 459.305 160.3 459.516Z" fill="#5441AF"/>
<path d="M137.3 723.126C137.3 723.126 138.4 723.758 139.1 724.918C139.8 726.078 139.6 727.871 139.6 727.871" stroke="#5441AF" stroke-miterlimit="10"/>
<path d="M141 721.544C141 721.544 142.1 722.177 142.8 723.336C143.5 724.496 143.3 726.289 143.3 726.289" stroke="#5441AF" stroke-miterlimit="10"/>
<path d="M144.6 720.595C144.6 720.595 145.7 721.228 146.4 722.387C147.1 723.547 146.9 725.34 146.9 725.34" stroke="#5441AF" stroke-miterlimit="10"/>
<path d="M147.9 719.435C147.9 719.435 149 720.068 149.7 721.228C150.4 722.387 150.2 724.18 150.2 724.18" stroke="#5441AF" stroke-miterlimit="10"/>
<path d="M381.9 680.105C381.9 680.105 382.4 678.839 383.5 678.101C384.6 677.363 386.3 677.468 386.3 677.468" stroke="#5441AF" stroke-miterlimit="10"/>
<path d="M380.2 676.309C380.2 676.309 380.7 675.043 381.8 674.305C382.9 673.567 384.6 673.672 384.6 673.672" stroke="#5441AF" stroke-miterlimit="10"/>
<path d="M379.2 672.513C379.2 672.513 379.7 671.247 380.8 670.509C381.9 669.771 383.6 669.876 383.6 669.876" stroke="#5441AF" stroke-miterlimit="10"/>
<path d="M377.9 669.138C377.9 669.138 378.4 667.873 379.5 667.135C380.6 666.397 382.3 666.502 382.3 666.502" stroke="#5441AF" stroke-miterlimit="10"/>
<path d="M634.1 395.196L665.9 435.475L651.1 458.462L620.5 420.397L634.1 395.196Z" fill="#4F3D9D"/>
<path d="M620.5 423.033L620.6 420.608L634.2 396.777L664.3 435.475L654 451.081L643.2 446.547L620.5 423.033Z" fill="white"/>
<path d="M673.5 466.792L675 465.316L647.8 430.519L620.5 422.295V423.033L628.2 433.472L673.5 466.792Z" fill="#F7F7F7"/>
<path d="M647.2 431.574L675 467.53L649.7 462.574L620.5 423.033L647.2 431.574Z" fill="#5441AF"/>
<path d="M620.5 420.397V423.033L621.1 423.244L621 419.342L620.5 420.397Z" fill="#362E2D"/>
<path d="M711.6 564.855C711.6 564.855 690.8 583.834 682.8 591.743C674.8 599.651 670.8 602.814 668.8 608.614C666.8 614.413 662.3 656.063 661.5 669.033C660.7 682.003 660 709.945 660 709.945H673.8C673.8 709.945 678.8 691.492 683.8 680.632C688.8 669.771 696.1 657.434 699.3 647.944C702.5 638.454 704.1 625.485 704.1 625.485C704.1 625.485 716.9 624.219 731.9 616.311C746.9 608.403 753.2 604.396 753.2 604.396C753.2 604.396 762.5 623.903 770.5 640.247C778.5 656.591 781.5 661.652 788.5 668.717C795.5 675.781 822.7 688.118 835.2 692.125C852.5 697.608 867.6 699.717 867.6 699.717L870.1 685.693C870.1 685.693 850.1 675.043 839.2 667.135C829.2 659.859 820.9 651.635 818.4 644.781C815.9 637.927 812.3 598.807 809.1 581.198C805.9 563.589 799.6 556.103 799.6 556.103L711.6 564.855Z" fill="#FF6ED9"/>
<path d="M753.1 604.396C753.1 604.396 757.2 602.393 760.7 600.073C764.2 597.753 767.1 595.222 767.1 595.222C767.1 595.222 766.3 601.022 763.8 606.083C761.3 611.144 758.3 615.362 758.3 615.362L753.1 604.396Z" fill="#FF5ED2"/>
<path d="M716.4 610.828L710.4 605.872L715.1 599.546L721.1 604.501L716.4 610.828ZM711.8 605.767L716.2 609.352L719.6 604.712L715.2 601.127L711.8 605.767Z" fill="#5441AF"/>
<path d="M680.2 614.097L675.5 612.831L676.7 607.876L681.4 609.141L680.2 614.097ZM676.7 612.093L679.5 612.831L680.2 609.879L677.4 609.141L676.7 612.093Z" fill="#5441AF"/>
<path d="M749.1 589.423L744.4 588.158L745.6 583.202L750.3 584.467L749.1 589.423ZM745.6 587.42L748.4 588.158L749.1 585.205L746.3 584.467L745.6 587.42Z" fill="#5441AF"/>
<path d="M694.8 635.818L688.4 629.702L694.2 622.954L700.6 629.07L694.8 635.818ZM689.8 629.702L694.7 634.447L699.2 629.281L694.3 624.536L689.8 629.702Z" fill="#5441AF"/>
<path d="M780.4 590.583L774.7 585.311L779.7 579.3L785.4 584.573L780.4 590.583ZM776.1 585.311L780.3 589.212L784 584.783L779.8 580.882L776.1 585.311Z" fill="#5441AF"/>
<path d="M673.2 699.19L668.5 697.714L669.9 692.758L674.6 694.234L673.2 699.19ZM669.8 696.976L672.5 697.819L673.3 694.972L670.6 694.129L669.8 696.976Z" fill="#5441AF"/>
<path d="M666.9 679.577L665.4 672.091L672.5 670.509L674 677.996L666.9 679.577ZM666.6 672.829L667.7 678.312L672.9 677.152L671.8 671.669L666.6 672.829Z" fill="#5441AF"/>
<path d="M664.2 640.985C664.2 641.407 664.1 641.934 664.1 642.356L665.4 641.512L667.9 645.519L664.1 648.155L663.6 647.417C663.5 647.944 663.5 648.577 663.4 649.104L663.7 649.631L669.2 645.941L665.7 640.141L664.2 640.985Z" fill="#5441AF"/>
<path d="M702.2 579.089L697.7 581.936L696.1 579.195C695.8 579.406 695.6 579.617 695.3 579.933L697.3 583.413L703.5 579.511L700.8 574.872C700.5 575.083 700.3 575.293 700 575.61L702.2 579.089Z" fill="#5441AF"/>
<path d="M792.5 643.516L787.7 637.294L793.6 632.233L798.4 638.454L792.5 643.516ZM789.2 637.505L792.7 642.039L797 638.349L793.5 633.815L789.2 637.505Z" fill="#5441AF"/>
<path d="M795.3 667.24L791 664.921L793.2 660.387L797.5 662.706L795.3 667.24ZM792.3 664.499L794.9 665.87L796.2 663.128L793.6 661.757L792.3 664.499Z" fill="#5441AF"/>
<path d="M800 604.923L795.7 602.603L797.9 598.069L802.2 600.389L800 604.923ZM797 602.076L799.6 603.447L800.9 600.705L798.3 599.335L797 602.076Z" fill="#5441AF"/>
<path d="M820.8 649.737C820.6 649.42 820.4 649.21 820.2 648.893L816.6 651.529L812.8 645.73L817.5 642.356C817.4 642.039 817.3 641.618 817.3 641.196L811.5 645.414L816.4 652.9L820.8 649.737Z" fill="#5441AF"/>
<path d="M857.6 689.278L850.3 689.173L850.4 681.475L857.7 681.581L857.6 689.278ZM851.3 688.118L856.6 688.224L856.7 682.635L851.4 682.53L851.3 688.118Z" fill="#5441AF"/>
<path d="M823 686.115L820.8 679.577L827 677.258L829.2 683.795L823 686.115ZM822.1 680.21L823.6 684.744L827.9 683.162L826.4 678.628L822.1 680.21Z" fill="#5441AF"/>
<path d="M764.3 627.699L773.4 631.39L770.3 639.93C770.3 640.036 770.4 640.141 770.4 640.141C770.6 640.458 770.7 640.774 770.9 641.196L774.7 630.757L763.6 626.223C763.8 626.75 764 627.172 764.3 627.699Z" fill="#5441AF"/>
<path d="M683 661.546L688.5 669.56L689.8 668.506C690.2 667.768 690.5 667.135 690.9 666.397L688.7 668.084L684.4 661.757L690.4 657.223L693.4 661.546C693.6 661.23 693.7 660.808 693.9 660.492L690.7 655.747L683 661.546Z" fill="#5441AF"/>
<path d="M754.8 420.608C771.645 420.608 785.3 406.209 785.3 388.447C785.3 370.686 771.645 356.287 754.8 356.287C737.955 356.287 724.3 370.686 724.3 388.447C724.3 406.209 737.955 420.608 754.8 420.608Z" fill="#DF8E89"/>
<path d="M660.1 709.84C660.1 709.84 660.4 713.847 658.8 714.69C655.7 716.588 650.6 719.646 647.7 721.649C643.4 724.602 638.1 729.769 638.6 732.405C639.1 734.935 648.2 732.616 661.4 727.238C674.6 721.966 677.1 723.442 674.8 715.217C673.8 711.527 673.5 709.523 673.5 709.523L660.1 709.84Z" fill="#5441AF"/>
<path d="M867.4 699.612C867.4 699.612 871.1 700.139 871.7 701.931C872.8 705.517 874.7 711.421 876 714.796C877.9 719.857 881.7 726.289 884.2 726.289C886.7 726.289 886.3 716.377 884 701.721C881.7 687.064 883.6 684.744 875.5 685.482C871.9 685.799 870 685.693 870 685.693L867.4 699.612Z" fill="#5441AF"/>
<path d="M662.9 468.69C662.9 468.69 660.6 458.567 656.2 454.139C651.9 449.71 645.1 448.656 641 444.965C636.9 441.275 635.2 434.842 632.5 435.053C629.8 435.264 628.7 447.601 632.9 451.924C637.1 456.248 641.6 458.567 644.9 463.418C648.2 468.268 652.3 472.064 654.3 473.013C656.3 473.962 662.9 468.69 662.9 468.69Z" fill="#DF8E89"/>
<path d="M814.7 358.079C814.7 358.079 814.5 350.909 817.4 345.321C820.3 339.732 828.5 336.358 831.3 331.508C834.1 326.657 838.7 321.807 841.4 321.174C844.1 320.541 843.9 329.293 841.1 334.776C838.3 340.259 832.2 341.63 830.4 347.324C828.6 353.018 825.8 357.869 824.2 359.45C822.5 360.926 814.7 358.079 814.7 358.079Z" fill="#DF8E89"/>
<path d="M733.2 352.385C733.2 352.385 731.2 365.566 742.3 372.736C753.4 379.906 761.2 376.321 761.2 376.321C761.2 376.321 758.9 389.08 766.1 399.097C773.3 409.114 776.5 411.118 776.5 411.118C776.5 411.118 794.4 397.304 790.4 382.437C788.1 374.001 782.7 371.998 782.7 371.998C782.7 371.998 783 363.668 774.7 357.236C766.4 350.804 750.4 356.076 743.7 355.654C737 355.232 733.2 352.385 733.2 352.385Z" fill="#FF353A"/>
<path d="M653.1 475.227L662.6 464.683L669.6 472.38C669.6 472.38 679.4 474.278 684.2 475.965C689 477.653 693.1 480.5 693.1 480.5C693.1 480.5 716 458.462 728.2 452.03C740.4 445.492 759.4 441.485 774.2 433.788C789 426.091 802.2 411.328 802.2 411.328C802.2 411.328 807.2 394.668 809 387.92C810.8 381.277 813 369.467 813 369.467V357.763H826V368.518C826 368.518 830 379.801 831.2 398.886C832.4 418.077 828 433.472 828 433.472C828 433.472 810.5 450.554 804.3 456.986C798.1 463.523 790 472.486 790 472.486C790 472.486 795.7 494.102 800.5 516.245C805.3 538.388 806.2 558.423 806.2 558.423C806.2 558.423 784.9 575.294 755.5 576.348C726.1 577.402 706.7 565.065 706.7 565.065C706.7 565.065 707 546.824 708.4 534.698C709.7 522.572 715.7 504.646 715.7 504.646C715.7 504.646 710.7 510.656 706 514.347C701.3 518.038 696 520.99 696 520.99C696 520.99 681.8 515.929 673.2 504.119C664.5 492.309 660.5 482.292 660.5 482.292L653.1 475.227Z" fill="#5441AF"/>
<path d="M715.7 504.752C715.7 504.752 721.3 487.564 724.5 478.074C727.7 468.584 729.2 464.999 729.2 464.999C729.2 464.999 721.4 472.802 717 485.772C712.6 498.741 709.3 511.711 709.3 511.711L715.7 504.752Z" fill="#4F3D9D"/>
<path d="M556.2 562.64L558.3 558.633L591.1 538.494L604 562.64L603.4 565.593L569.3 586.471L556.2 562.64Z" fill="#FF5ED2"/>
<path d="M590.429 541.824L556.222 562.649L569.222 586.39L603.429 565.565L590.429 541.824Z" fill="#FF6ED9"/>
<path d="M422.2 718.17C422.2 718.17 416.6 682.002 421.9 646.573C427.3 610.617 436.4 573.079 436.4 573.079C436.4 573.079 465.2 579.406 485.7 575.399C506.2 571.392 530.7 564.116 530.7 564.116C530.7 564.116 534.9 584.467 537.3 608.719C539.6 632.971 538.1 629.281 541.4 641.196C544.7 653.111 556.3 687.907 560.6 698.135C565 708.363 569.7 721.017 569.7 721.017H554.4C554.4 721.017 524.2 687.802 511.4 667.768C498.6 647.733 482.8 612.199 482.8 612.199C482.8 612.199 465.8 649.315 458.9 664.71C452 680.21 434.7 721.649 434.7 721.649L422.2 718.17Z" fill="#4E3734"/>
<path d="M484.9 438.111C501.027 438.111 514.1 424.326 514.1 407.322C514.1 390.317 501.027 376.532 484.9 376.532C468.773 376.532 455.7 390.317 455.7 407.322C455.7 424.326 468.773 438.111 484.9 438.111Z" fill="#DF8E89"/>
<path d="M509.9 423.349C512.6 418.709 514.2 413.121 514.2 407.322C514.2 390.24 501.1 376.532 485 376.532C479 376.532 473.5 378.43 468.9 381.699C468.9 381.699 465.7 392.77 473.5 400.046C481.4 407.427 489.9 403.209 489.9 403.209C489.9 403.209 486.6 413.859 495.2 420.502C502.5 426.196 509.9 423.349 509.9 423.349Z" fill="#4E3734"/>
<path d="M513.2 394.879C527.007 394.879 538.2 383.077 538.2 368.518C538.2 353.96 527.007 342.157 513.2 342.157C499.393 342.157 488.2 353.96 488.2 368.518C488.2 383.077 499.393 394.879 513.2 394.879Z" fill="#4E3734"/>
<path d="M486.1 594.801C486.1 594.801 485.1 601.971 484.3 605.767C483.5 609.563 482.7 612.304 482.7 612.304L491.3 630.757C491.3 630.757 491.7 615.468 490.1 606.927C488.5 598.386 486.1 594.801 486.1 594.801Z" fill="#362E2D"/>
<path d="M422.2 718.17C422.2 718.17 412.3 719.962 407.2 720.595C402.1 721.228 395.5 723.02 394.9 725.551C394.3 728.081 403.1 730.612 416.9 732.194C430.7 733.67 431.9 735.357 433.1 727.132C433.6 723.336 434.5 721.86 434.5 721.86L422.2 718.17Z" fill="#FF353A"/>
<path d="M556.9 721.228C556.9 721.228 547.8 722.915 543 725.024C538.2 727.132 534.5 729.347 534.5 731.983C534.5 733.986 543.2 733.354 556.8 733.459C570.7 733.564 574.6 733.881 572.2 725.973C571.4 723.231 569.1 721.017 569.1 721.017L556.9 721.228Z" fill="#FF353A"/>
<path d="M393.5 502.01C393.5 502.01 388.9 496 385.7 494.102C382.5 492.204 377 490.095 374.4 488.513C371.8 486.932 366.6 483.241 365.1 485.666C363.6 488.091 365.9 492.309 369.5 494.524C373.1 496.843 378.7 506.966 384 507.704C389.3 508.442 391.6 508.653 391.6 508.653L393.5 502.01Z" fill="#DF8E89"/>
<path d="M570.6 540.286C570.6 540.286 572.9 539.337 576.3 542.922C579.7 546.507 582.9 554.732 584.1 557.79C585.3 560.848 585.6 563.906 586.7 566.014C587.8 568.229 588.1 570.548 586.7 571.392C585.3 572.236 581.1 568.861 577.8 565.382C574.5 561.902 570.5 559.582 568.4 554.837C566.4 550.303 566.6 546.613 566.6 546.613L570.6 540.286Z" fill="#DF8E89"/>
<path d="M395 497.16C395 497.16 410.6 500.112 416.1 501.167C421.6 502.221 428.1 503.486 428.1 503.486C428.1 503.486 443.6 482.608 454.2 471.115C464.8 459.727 470.6 451.819 486.3 451.819C506.5 451.819 530.2 478.812 543.1 494.734C558 513.187 572.2 537.755 572.2 537.755L564.4 550.198C564.4 550.198 546.3 535.752 539.1 531.534C531.9 527.317 521.4 521.728 521.4 521.728C521.4 521.728 525.2 532.589 527.8 544.715C530.4 556.841 530.8 564.011 530.8 564.011C530.8 564.011 514.1 575.926 484.7 577.719C455.3 579.511 436.5 572.974 436.5 572.974C436.5 572.974 438.1 561.059 439.8 553.256C441.5 545.558 443.4 538.704 443.4 538.704C443.4 538.704 432.8 539.653 419.1 534.592C401.3 528.055 390.2 513.398 390.2 513.398L395 497.16Z" fill="#7B6DCF"/>
<path d="M443.3 538.81C443.3 538.81 440.8 548.3 440.1 551.674C439.4 555.048 438.6 559.266 438.6 559.266C438.6 559.266 470 526.895 476.8 518.986C483.6 511.078 495.7 497.054 495.4 484.717C495.1 472.38 492.8 469.639 492.8 469.639C492.8 469.639 494.2 477.547 491.5 485.666C487.7 496.949 471.9 511.605 464.4 518.986C458.2 525.208 443.3 538.81 443.3 538.81Z" fill="#6A5AC1"/>
<path d="M512.4 488.619C512.4 488.619 516.5 501.061 518.1 506.86C519.7 512.66 521.3 521.728 521.3 521.728L527.3 524.997C527.3 524.997 523 511.816 520.3 504.541C517.6 497.265 512.4 488.619 512.4 488.619Z" fill="#6A5AC1"/>
<path d="M515.8 530.164L515.3 534.698L518.5 537.65L514.4 538.494L512.7 542.606L510.6 538.704L506.3 538.388L509.2 535.014L508.3 530.691L512.1 532.483L515.8 530.164Z" fill="#FF6ED9"/>
<path d="M530.7 564.116C530.7 564.116 530.6 562.324 530.2 558.95L528.2 561.48L524.7 561.164L526.6 564.327L525.3 567.385C528.9 565.382 530.7 564.116 530.7 564.116Z" fill="#FF6ED9"/>
<path d="M447.4 481.976L449 484.928L450.3 481.765L453.5 481.027L451 478.812L451.4 475.438L449.4 476.704C448 478.285 446.6 479.972 445.2 481.765L447.4 481.976Z" fill="#FF6ED9"/>
<path d="M448 575.821L451.5 574.977L448.2 572.13L448.6 567.701L445 570.127L441.1 568.44L442.2 572.763L440.9 574.344C442.7 574.766 445.1 575.293 448 575.821Z" fill="#FF6ED9"/>
<path d="M498.4 561.164L500.8 561.902L502.7 560.11L502.8 562.746L505 564.116L502.7 565.065L502.1 567.596L500.5 565.593L498.1 565.804L499.4 563.589L498.4 561.164Z" fill="#FF6ED9"/>
<path d="M450.4 510.024L453.5 510.867L456 508.653L456.2 512.133L458.9 513.82L455.9 515.085L455.2 518.354L453.1 515.718L449.9 516.034L451.7 513.187L450.4 510.024Z" fill="#FF6ED9"/>
<path d="M560.1 518.354L559.8 518.565L556.7 517.721L558 520.884L556.3 523.731L559.5 523.415L561.5 526.051L562.2 522.782L562.8 522.572C562 521.201 561.1 519.83 560.1 518.354Z" fill="#FF6ED9"/>
<path d="M485.7 516.772L487.4 517.194L488.7 516.034L488.8 517.827L490.3 518.776L488.7 519.408L488.3 521.201L487.2 519.83L485.5 520.041L486.4 518.459L485.7 516.772Z" fill="#FF6ED9"/>
<path d="M427 528.687L428.4 527.633V525.84L429.8 526.895L431.4 526.262L430.9 528.055L432 529.531H430.2L429.2 531.007L428.7 529.215L427 528.687Z" fill="#FF6ED9"/>
<path d="M559.9 541.868L561.6 542.29L562.9 541.13L563 542.922L564.5 543.871L562.9 544.609L562.5 546.402L561.4 544.926L559.7 545.137L560.6 543.555L559.9 541.868Z" fill="#FF6ED9"/>
<path d="M485.7 460.149L487.4 460.676L488.7 459.411L488.8 461.309L490.3 462.258L488.7 462.89L488.3 464.683L487.2 463.312L485.5 463.418L486.4 461.836L485.7 460.149Z" fill="#FF6ED9"/>
<path d="M529.9 493.047L531.6 493.469L532.9 492.309L533 494.102L534.5 495.051L532.9 495.683L532.5 497.476L531.4 496.105L529.6 496.316L530.6 494.734L529.9 493.047Z" fill="#FF6ED9"/>
<path d="M405.6 510.551L408.5 511.395L410.8 509.286L411 512.449L413.6 514.136L410.8 515.296L410.1 518.459L408.2 515.929L405.1 516.245L406.8 513.503L405.6 510.551Z" fill="#FF6ED9"/>
<path d="M467.6 542.606L472.8 546.824L478.9 544.609L476.8 551.041L480.6 556.524L474.2 556.419L470.4 562.008L468.5 555.47L462.4 553.361L467.7 549.46L467.6 542.606Z" fill="#FF6ED9"/>
<path d="M470 475.438L474.1 478.707L479 477.02L477.3 482.081L480.4 486.51L475.2 486.404L472.2 490.728L470.7 485.561L465.9 483.979L470.1 480.816L470 475.438Z" fill="#FF6ED9"/>
<path d="M539.1 520.568L536.3 516.034L534.6 521.095L529.6 522.466L533.6 525.84L533.5 528.476C534.2 528.898 534.9 529.215 535.5 529.636L537.6 528.16L542.4 530.164L541 524.997L544.3 520.779L539.1 520.568Z" fill="#FF6ED9"/>
<path d="M506.9 475.438L512.6 472.17L518.4 475.227L517.2 468.479L518 467.635C515.5 465.421 512.9 463.312 510.3 461.414L509.7 462.89L503.3 464.05L508 468.69L506.9 475.438Z" fill="#FF6ED9"/>
<path d="M944.5 546.507C944.5 546.507 940.7 585.522 955.5 631.179C970.3 676.836 988.3 719.33 988.3 719.33H1003.6C1003.6 719.33 1006.1 679.156 1005.6 652.795C1005.1 626.434 1004.8 606.61 1004.8 606.61C1004.8 606.61 1016.7 618.842 1023.3 623.27C1029.9 627.699 1037.7 627.383 1046.8 625.485C1055.9 623.587 1100.7 611.882 1100.7 611.882L1099.7 598.702C1099.7 598.702 1080.2 592.059 1068.1 589.739C1056 587.419 1042.3 582.885 1042.3 582.885C1042.3 582.885 1036.4 565.276 1029.4 550.62C1022.4 535.963 1019.6 531.218 1019.6 531.218L944.5 546.507Z" fill="#7B6DCF"/>
<path d="M1004.8 606.61C1004.8 606.61 995.9 599.018 989.9 592.164C983.9 585.311 979.3 577.824 979.3 577.824C979.3 577.824 985.7 593.535 993.9 602.076C1001.5 610.09 1004.9 612.093 1004.9 612.093L1004.8 606.61Z" fill="#6A5AC1"/>
<path d="M997.3 631.495L989.1 623.798L999.5 624.219L997.3 631.495Z" fill="#FF6ED9"/>
<path d="M975.9 609.352L979.9 602.603L980.8 610.09L975.9 609.352Z" fill="#FF6ED9"/>
<path d="M997.1 704.357L994.3 696.87L1000.6 700.561L997.1 704.357Z" fill="#FF6ED9"/>
<path d="M1011.1 561.902L1012.9 570.232L1005.4 567.491L1011.1 561.902Z" fill="#FF6ED9"/>
<path d="M979.8 681.792L984.6 681.159L982.6 685.798L979.8 681.792Z" fill="#FF6ED9"/>
<path d="M1031.3 595.328L1036.2 594.59L1034.1 599.335L1031.3 595.328Z" fill="#FF6ED9"/>
<path d="M1051.2 603.974L1054.8 597.437L1058.4 603.447L1051.2 603.974Z" fill="#FF6ED9"/>
<path d="M1089.3 607.77L1094.3 602.814L1097.1 607.348L1089.3 607.77Z" fill="#FF6ED9"/>
<path d="M982.5 558.317L983.2 553.15L986.9 556.63L982.5 558.317Z" fill="#FF6ED9"/>
<path d="M967.7 641.618L975.8 650.264L964.8 652.9L967.7 641.618Z" fill="#FF6ED9"/>
<path d="M1013.2 588.896L1009.4 600.389L1002.3 591.11L1013.2 588.896Z" fill="#FF6ED9"/>
<path d="M1068.8 594.59L1078.1 603.763L1067.7 608.614L1068.8 594.59Z" fill="#FF6ED9"/>
<path d="M961.5 572.025L968.5 581.198L971 572.025H961.5Z" fill="#FF6ED9"/>
<path d="M1029.4 550.62C1029.2 550.092 1028.9 549.671 1028.7 549.143L1025.5 546.613L1026.1 564.749L1033.2 558.95C1032 556.208 1030.7 553.361 1029.4 550.62Z" fill="#FF6ED9"/>
<path d="M944.1 559.688C944.1 562.113 944.2 564.749 944.3 567.702L949 568.44L944.5 559.371L944.1 559.688Z" fill="#FF6ED9"/>
<path d="M1005.6 662.495C1005.6 659.121 1005.6 655.852 1005.5 652.795C1005.5 652.162 1005.5 651.529 1005.5 650.897L990.1 656.063L1005.6 662.495Z" fill="#FF6ED9"/>
<path d="M1046.1 612.093L1034.2 620.634L1043.3 626.223C1044.4 626.012 1045.5 625.801 1046.7 625.59C1047.6 625.379 1049 625.063 1050.6 624.747L1046.1 612.093Z" fill="#FF6ED9"/>
<path d="M950.6 613.78H961.2L951.6 592.903L948.7 605.45C949.4 608.192 950 610.933 950.6 613.78Z" fill="#FF6ED9"/>
<path d="M984.2 414.281C1000.33 414.281 1013.4 400.496 1013.4 383.491C1013.4 366.487 1000.33 352.702 984.2 352.702C968.073 352.702 955 366.487 955 383.491C955 400.496 968.073 414.281 984.2 414.281Z" fill="#8C503E"/>
<path d="M1100.5 611.882C1100.5 611.882 1103.1 622.849 1104.7 628.121C1106.3 633.288 1109.3 639.825 1111.7 639.93C1114.2 640.036 1114.8 630.335 1113.4 615.573C1112 600.811 1113.2 598.807 1105.1 598.913C1101.5 598.913 1099.6 598.702 1099.6 598.702L1100.5 611.882Z" fill="#4E3734"/>
<path d="M988.3 719.33C988.3 719.33 977.9 721.649 972.2 723.969C966.5 726.289 962.1 728.82 962.1 731.772C962.1 734.092 972.5 733.354 988.7 733.354C1005.3 733.459 1010 733.881 1007.1 725.024C1006.1 721.966 1003.6 719.224 1003.6 719.224H988.3V719.33Z" fill="#4E3734"/>
<path d="M930.1 342.79C930.1 342.79 927.7 335.304 928 331.191C928.3 327.079 929.5 320.752 929.7 317.378C929.9 314.004 929.7 307.15 932.5 306.939C935.3 306.728 937.4 311.051 937.3 315.691C937.2 320.331 942.3 330.98 940 336.463C937.7 341.946 936.6 344.266 936.6 344.266L930.1 342.79Z" fill="#8C503E"/>
<path d="M1101.1 429.887C1101.1 429.887 1108.2 427.356 1111.1 424.72C1114 422.084 1118.1 417.233 1120.6 415.019C1123.1 412.805 1128.4 408.798 1126.8 406.373C1125.2 403.947 1120.7 404.686 1117.2 407.638C1113.8 410.485 1102.6 412.594 1099.8 417.761C1097 422.927 1096 425.352 1096 425.352L1101.1 429.887Z" fill="#8C503E"/>
<path d="M924.3 340.892L940.8 344.899C940.8 344.899 939.2 387.287 940.5 393.087C942.3 400.679 972.3 425.774 972.3 425.774C972.3 425.774 1004.8 426.091 1015.3 430.308C1025.8 434.526 1036.8 442.223 1046.8 442.962C1056.8 443.7 1093.6 420.818 1093.6 420.818L1105.4 433.472C1105.4 433.472 1094.9 448.128 1087.6 455.404C1078.1 464.894 1062.6 478.074 1051.8 479.656C1041 481.238 1007.5 468.057 1007.5 468.057C1007.5 468.057 1015 495.473 1020.7 507.388C1026.5 519.303 1032 527.949 1032 527.949C1032 527.949 1006.1 544.293 984.2 548.827C962.3 553.361 937.5 548.827 937.5 548.827C937.5 548.827 930.7 529.531 936 498.214C941.3 466.897 945 459.2 945 459.2C945 459.2 918.7 421.556 914.5 406.162C910.3 390.767 924.3 340.892 924.3 340.892Z" fill="#FF6ED9"/>
<path d="M993.8 452.241C993.8 452.241 998.6 459.938 1002 463.101C1005.3 466.159 1007.6 468.057 1007.6 468.057L1012.7 485.35C1012.7 485.35 1003.4 478.074 999.9 470.904C996.2 463.629 993.8 452.241 993.8 452.241Z" fill="#FF5ED2"/>
<path d="M945 458.989C945 458.989 948.6 448.339 954.9 440.536C962.1 431.785 972.2 425.774 972.2 425.774L968.9 423.033C968.9 423.033 959.8 426.723 951.7 436.213C944.7 444.438 941.8 454.56 941.8 454.56L945 458.989Z" fill="#FF5ED2"/>
<path d="M1013.5 383.491C1013.5 366.409 1000.4 352.702 984.3 352.702C977.7 352.702 971.5 355.021 966.6 359.028C966.6 359.028 959.5 369.045 969.3 375.478C979.1 381.91 985.9 377.165 985.9 377.165C985.9 377.165 988.4 379.484 988.2 383.597C987.7 391.294 977.9 393.087 978.1 402.998C978.4 416.706 992.9 414.597 992.9 421.873C992.9 428.199 985.2 432.101 984.5 440.536C983.8 449.183 987.7 455.615 993.7 456.986C1013.3 461.52 1019.5 437.478 1020.5 430.73C1021.5 423.982 1019.1 410.907 1015.5 398.148C1014.4 394.036 1013.5 383.491 1013.5 383.491Z" fill="white"/>
<path d="M946.034 282.78L905.936 309.828L922.803 337.63L962.902 310.582L946.034 282.78Z" fill="#4F3D9D"/>
<path d="M942.1 281L945.7 282.687L958.8 310.208L923 335.831L903.3 340.892V307.994L942.1 281Z" fill="white"/>
<path d="M942.3 314.637L902.2 341.736L902.1 307.994L942.1 281L942.3 314.637Z" fill="#5441AF"/>
<path d="M942.1 281L945.9 282.898L946.1 283.531L942.1 281.949V281Z" fill="#4F3D9D"/>
<path d="M944.9 283.003L953.8 309.786L915.6 337.729L923 335.831L958.8 310.208L946.1 283.531L944.9 283.003Z" fill="#F7F7F7"/>
<path d="M935.5 334.038L936.2 326.341L939.1 324.337L939.9 327.501L935.5 334.038Z" fill="#8C503E"/>
<rect width="5.12936" height="17.4978" transform="matrix(-0.710564 0.703633 -0.665093 -0.74676 129.282 539.751)" fill="#FFEFF0"/>
</g>
<path d="M809.4 313L838.08 271H845.22L816.54 313H809.4ZM813.06 293.68C811.02 293.68 809.22 293.22 807.66 292.3C806.1 291.34 804.86 290 803.94 288.28C803.06 286.52 802.62 284.46 802.62 282.1C802.62 279.74 803.06 277.7 803.94 275.98C804.86 274.26 806.1 272.92 807.66 271.96C809.22 271 811.02 270.52 813.06 270.52C815.1 270.52 816.9 271 818.46 271.96C820.02 272.92 821.24 274.26 822.12 275.98C823 277.7 823.44 279.74 823.44 282.1C823.44 284.46 823 286.52 822.12 288.28C821.24 290 820.02 291.34 818.46 292.3C816.9 293.22 815.1 293.68 813.06 293.68ZM813.06 288.76C814.38 288.76 815.44 288.22 816.24 287.14C817.04 286.02 817.44 284.34 817.44 282.1C817.44 279.86 817.04 278.2 816.24 277.12C815.44 276 814.38 275.44 813.06 275.44C811.78 275.44 810.72 276 809.88 277.12C809.08 278.2 808.68 279.86 808.68 282.1C808.68 284.3 809.08 285.96 809.88 287.08C810.72 288.2 811.78 288.76 813.06 288.76ZM841.56 313.48C839.56 313.48 837.76 313.02 836.16 312.1C834.6 311.14 833.38 309.8 832.5 308.08C831.62 306.32 831.18 304.26 831.18 301.9C831.18 299.54 831.62 297.5 832.5 295.78C833.38 294.06 834.6 292.72 836.16 291.76C837.76 290.8 839.56 290.32 841.56 290.32C843.64 290.32 845.46 290.8 847.02 291.76C848.58 292.72 849.8 294.06 850.68 295.78C851.56 297.5 852 299.54 852 301.9C852 304.26 851.56 306.32 850.68 308.08C849.8 309.8 848.58 311.14 847.02 312.1C845.46 313.02 843.64 313.48 841.56 313.48ZM841.56 308.56C842.88 308.56 843.94 308.02 844.74 306.94C845.54 305.82 845.94 304.14 845.94 301.9C845.94 299.7 845.54 298.04 844.74 296.92C843.94 295.8 842.88 295.24 841.56 295.24C840.28 295.24 839.22 295.8 838.38 296.92C837.58 298 837.18 299.66 837.18 301.9C837.18 304.14 837.58 305.82 838.38 306.94C839.22 308.02 840.28 308.56 841.56 308.56Z" fill="#534FD2"/>
<path d="M804.4 308L833.08 266H840.22L811.54 308H804.4ZM808.06 288.68C806.02 288.68 804.22 288.22 802.66 287.3C801.1 286.34 799.86 285 798.94 283.28C798.06 281.52 797.62 279.46 797.62 277.1C797.62 274.74 798.06 272.7 798.94 270.98C799.86 269.26 801.1 267.92 802.66 266.96C804.22 266 806.02 265.52 808.06 265.52C810.1 265.52 811.9 266 813.46 266.96C815.02 267.92 816.24 269.26 817.12 270.98C818 272.7 818.44 274.74 818.44 277.1C818.44 279.46 818 281.52 817.12 283.28C816.24 285 815.02 286.34 813.46 287.3C811.9 288.22 810.1 288.68 808.06 288.68ZM808.06 283.76C809.38 283.76 810.44 283.22 811.24 282.14C812.04 281.02 812.44 279.34 812.44 277.1C812.44 274.86 812.04 273.2 811.24 272.12C810.44 271 809.38 270.44 808.06 270.44C806.78 270.44 805.72 271 804.88 272.12C804.08 273.2 803.68 274.86 803.68 277.1C803.68 279.3 804.08 280.96 804.88 282.08C805.72 283.2 806.78 283.76 808.06 283.76ZM836.56 308.48C834.56 308.48 832.76 308.02 831.16 307.1C829.6 306.14 828.38 304.8 827.5 303.08C826.62 301.32 826.18 299.26 826.18 296.9C826.18 294.54 826.62 292.5 827.5 290.78C828.38 289.06 829.6 287.72 831.16 286.76C832.76 285.8 834.56 285.32 836.56 285.32C838.64 285.32 840.46 285.8 842.02 286.76C843.58 287.72 844.8 289.06 845.68 290.78C846.56 292.5 847 294.54 847 296.9C847 299.26 846.56 301.32 845.68 303.08C844.8 304.8 843.58 306.14 842.02 307.1C840.46 308.02 838.64 308.48 836.56 308.48ZM836.56 303.56C837.88 303.56 838.94 303.02 839.74 301.94C840.54 300.82 840.94 299.14 840.94 296.9C840.94 294.7 840.54 293.04 839.74 291.92C838.94 290.8 837.88 290.24 836.56 290.24C835.28 290.24 834.22 290.8 833.38 291.92C832.58 293 832.18 294.66 832.18 296.9C832.18 299.14 832.58 300.82 833.38 301.94C834.22 303.02 835.28 303.56 836.56 303.56Z" fill="white"/>
<path d="M622.438 235.554C630.203 235.554 637.423 237.253 644.096 240.65C650.769 244.047 656.108 248.84 660.112 255.028C664.116 261.216 666.118 268.314 666.118 276.322C666.118 285.179 663.813 293.005 659.202 299.8C654.713 306.595 648.525 311.812 640.638 315.452C632.751 319.092 624.015 320.912 614.43 320.912C602.175 320.912 591.437 318.546 582.216 313.814C573.116 309.082 566.018 302.045 560.922 292.702C555.826 283.359 553.278 271.893 553.278 258.304C553.278 243.744 556.19 231.125 562.014 220.448C567.959 209.771 576.21 201.641 586.766 196.06C597.443 190.479 609.819 187.688 623.894 187.688C631.538 187.688 638.818 188.598 645.734 190.418C652.65 192.117 658.535 194.543 663.388 197.698L647.918 227.728C641.609 223.239 633.904 220.994 624.804 220.994C617.403 220.994 611.275 222.875 606.422 226.636C601.69 230.276 598.596 235.615 597.14 242.652C603.813 237.92 612.246 235.554 622.438 235.554ZM611.518 291.246C615.401 291.246 618.555 290.093 620.982 287.788C623.409 285.483 624.622 282.328 624.622 278.324C624.622 274.32 623.409 271.165 620.982 268.86C618.555 266.433 615.401 265.22 611.518 265.22C607.635 265.22 604.481 266.433 602.054 268.86C599.627 271.165 598.414 274.32 598.414 278.324C598.414 282.328 599.627 285.483 602.054 287.788C604.481 290.093 607.635 291.246 611.518 291.246ZM731.298 320.912C720.014 320.912 710.004 318.303 701.268 313.086C692.654 307.747 685.859 300.103 680.884 290.154C676.031 280.083 673.604 268.132 673.604 254.3C673.604 240.468 676.031 228.577 680.884 218.628C685.859 208.557 692.654 200.913 701.268 195.696C710.004 190.357 720.014 187.688 731.298 187.688C742.582 187.688 752.532 190.357 761.146 195.696C769.882 200.913 776.677 208.557 781.53 218.628C786.505 228.577 788.992 240.468 788.992 254.3C788.992 268.132 786.505 280.083 781.53 290.154C776.677 300.103 769.882 307.747 761.146 313.086C752.532 318.303 742.582 320.912 731.298 320.912ZM731.298 286.514C741.005 286.514 745.858 275.776 745.858 254.3C745.858 232.824 741.005 222.086 731.298 222.086C721.592 222.086 716.738 232.824 716.738 254.3C716.738 275.776 721.592 286.514 731.298 286.514Z" fill="#534FD2"/>
<path d="M601.43 307.912C589.297 307.912 578.619 305.607 569.398 300.996C560.298 296.264 553.139 289.287 547.922 280.066C542.826 270.723 540.278 259.136 540.278 245.304C540.278 230.38 543.251 217.701 549.196 207.266C555.141 196.71 563.392 188.641 573.948 183.06C584.625 177.479 596.941 174.688 610.894 174.688C618.417 174.688 625.636 175.598 632.552 177.418C639.589 179.117 645.535 181.543 650.388 184.698L634.918 214.728C631.157 212.059 627.335 210.299 623.452 209.45C619.691 208.479 615.808 207.994 611.804 207.994C603.189 207.994 596.273 210.603 591.056 215.82C585.96 220.916 583.412 228.378 583.412 238.206C583.412 240.026 583.412 241.846 583.412 243.666C583.412 245.365 583.412 247.124 583.412 248.944L573.584 241.846C576.011 237.721 578.862 234.263 582.138 231.472C585.414 228.56 589.297 226.376 593.786 224.92C598.275 223.343 603.493 222.554 609.438 222.554C617.203 222.554 624.362 224.253 630.914 227.65C637.587 230.926 642.926 235.597 646.93 241.664C651.055 247.731 653.118 254.95 653.118 263.322C653.118 272.422 650.813 280.309 646.202 286.982C641.591 293.655 635.343 298.812 627.456 302.452C619.691 306.092 611.015 307.912 601.43 307.912ZM598.518 278.246C601.066 278.246 603.311 277.761 605.252 276.79C607.315 275.698 608.892 274.181 609.984 272.24C611.076 270.299 611.622 267.993 611.622 265.324C611.622 261.32 610.409 258.165 607.982 255.86C605.555 253.433 602.401 252.22 598.518 252.22C595.97 252.22 593.725 252.766 591.784 253.858C589.843 254.95 588.265 256.467 587.052 258.408C585.96 260.349 585.414 262.655 585.414 265.324C585.414 267.993 585.96 270.299 587.052 272.24C588.265 274.181 589.843 275.698 591.784 276.79C593.725 277.761 595.97 278.246 598.518 278.246ZM718.298 307.912C707.014 307.912 697.004 305.303 688.268 300.086C679.654 294.869 672.859 287.285 667.884 277.336C663.031 267.387 660.604 255.375 660.604 241.3C660.604 227.225 663.031 215.213 667.884 205.264C672.859 195.315 679.654 187.731 688.268 182.514C697.004 177.297 707.014 174.688 718.298 174.688C729.582 174.688 739.532 177.297 748.146 182.514C756.882 187.731 763.677 195.315 768.53 205.264C773.505 215.213 775.992 227.225 775.992 241.3C775.992 255.375 773.505 267.387 768.53 277.336C763.677 287.285 756.882 294.869 748.146 300.086C739.532 305.303 729.582 307.912 718.298 307.912ZM718.298 273.514C721.089 273.514 723.576 272.543 725.76 270.602C727.944 268.661 729.643 265.324 730.856 260.592C732.191 255.86 732.858 249.429 732.858 241.3C732.858 233.049 732.191 226.619 730.856 222.008C729.643 217.276 727.944 213.939 725.76 211.998C723.576 210.057 721.089 209.086 718.298 209.086C715.508 209.086 713.02 210.057 710.836 211.998C708.652 213.939 706.893 217.276 705.558 222.008C704.345 226.619 703.738 233.049 703.738 241.3C703.738 249.429 704.345 255.86 705.558 260.592C706.893 265.324 708.652 268.661 710.836 270.602C713.02 272.543 715.508 273.514 718.298 273.514Z" fill="white"/>
<path d="M389.94 220.48C387.26 220.48 384.86 219.96 382.74 218.92C380.66 217.88 379.04 216.3 377.88 214.18C376.72 212.02 376.14 209.28 376.14 205.96V187.72H385.5V204.58C385.5 207.26 386.06 209.24 387.18 210.52C388.34 211.76 389.96 212.38 392.04 212.38C393.48 212.38 394.76 212.08 395.88 211.48C397 210.84 397.88 209.88 398.52 208.6C399.16 207.28 399.48 205.64 399.48 203.68V187.72H408.84V220H399.96V211.12L401.58 213.7C400.5 215.94 398.9 217.64 396.78 218.8C394.7 219.92 392.42 220.48 389.94 220.48ZM436.591 220.48C433.871 220.48 431.491 219.88 429.451 218.68C427.411 217.48 425.811 215.66 424.651 213.22C423.531 210.74 422.971 207.62 422.971 203.86C422.971 200.06 423.511 196.94 424.591 194.5C425.671 192.06 427.231 190.24 429.271 189.04C431.311 187.84 433.751 187.24 436.591 187.24C439.631 187.24 442.351 187.94 444.751 189.34C447.191 190.7 449.111 192.62 450.511 195.1C451.951 197.58 452.671 200.5 452.671 203.86C452.671 207.26 451.951 210.2 450.511 212.68C449.111 215.16 447.191 217.08 444.751 218.44C442.351 219.8 439.631 220.48 436.591 220.48ZM417.511 231.64V187.72H426.451V194.32L426.271 203.92L426.871 213.46V231.64H417.511ZM434.971 212.8C436.531 212.8 437.911 212.44 439.111 211.72C440.351 211 441.331 209.98 442.051 208.66C442.811 207.3 443.191 205.7 443.191 203.86C443.191 201.98 442.811 200.38 442.051 199.06C441.331 197.74 440.351 196.72 439.111 196C437.911 195.28 436.531 194.92 434.971 194.92C433.411 194.92 432.011 195.28 430.771 196C429.531 196.72 428.551 197.74 427.831 199.06C427.111 200.38 426.751 201.98 426.751 203.86C426.751 205.7 427.111 207.3 427.831 208.66C428.551 209.98 429.531 211 430.771 211.72C432.011 212.44 433.411 212.8 434.971 212.8ZM489.129 220.48C485.329 220.48 482.369 219.52 480.249 217.6C478.129 215.64 477.069 212.74 477.069 208.9V180.58H486.429V208.78C486.429 210.14 486.789 211.2 487.509 211.96C488.229 212.68 489.209 213.04 490.449 213.04C491.929 213.04 493.189 212.64 494.229 211.84L496.749 218.44C495.789 219.12 494.629 219.64 493.269 220C491.949 220.32 490.569 220.48 489.129 220.48ZM472.089 195.64V188.44H494.469V195.64H472.089ZM516.368 220.48C512.928 220.48 509.868 219.76 507.188 218.32C504.548 216.88 502.448 214.92 500.888 212.44C499.368 209.92 498.608 207.06 498.608 203.86C498.608 200.62 499.368 197.76 500.888 195.28C502.448 192.76 504.548 190.8 507.188 189.4C509.868 187.96 512.928 187.24 516.368 187.24C519.768 187.24 522.808 187.96 525.488 189.4C528.168 190.8 530.268 192.74 531.788 195.22C533.308 197.7 534.068 200.58 534.068 203.86C534.068 207.06 533.308 209.92 531.788 212.44C530.268 214.92 528.168 216.88 525.488 218.32C522.808 219.76 519.768 220.48 516.368 220.48ZM516.368 212.8C517.928 212.8 519.328 212.44 520.568 211.72C521.808 211 522.788 209.98 523.508 208.66C524.228 207.3 524.588 205.7 524.588 203.86C524.588 201.98 524.228 200.38 523.508 199.06C522.788 197.74 521.808 196.72 520.568 196C519.328 195.28 517.928 194.92 516.368 194.92C514.808 194.92 513.408 195.28 512.168 196C510.928 196.72 509.928 197.74 509.168 199.06C508.448 200.38 508.088 201.98 508.088 203.86C508.088 205.7 508.448 207.3 509.168 208.66C509.928 209.98 510.928 211 512.168 211.72C513.408 212.44 514.808 212.8 516.368 212.8Z" fill="#534FD2"/>
<path d="M384.94 215.48C382.26 215.48 379.86 214.96 377.74 213.92C375.66 212.88 374.04 211.3 372.88 209.18C371.72 207.02 371.14 204.28 371.14 200.96V182.72H380.5V199.58C380.5 202.26 381.06 204.24 382.18 205.52C383.34 206.76 384.96 207.38 387.04 207.38C388.48 207.38 389.76 207.08 390.88 206.48C392 205.84 392.88 204.88 393.52 203.6C394.16 202.28 394.48 200.64 394.48 198.68V182.72H403.84V215H394.96V206.12L396.58 208.7C395.5 210.94 393.9 212.64 391.78 213.8C389.7 214.92 387.42 215.48 384.94 215.48ZM431.591 215.48C428.871 215.48 426.491 214.88 424.451 213.68C422.411 212.48 420.811 210.66 419.651 208.22C418.531 205.74 417.971 202.62 417.971 198.86C417.971 195.06 418.511 191.94 419.591 189.5C420.671 187.06 422.231 185.24 424.271 184.04C426.311 182.84 428.751 182.24 431.591 182.24C434.631 182.24 437.351 182.94 439.751 184.34C442.191 185.7 444.111 187.62 445.511 190.1C446.951 192.58 447.671 195.5 447.671 198.86C447.671 202.26 446.951 205.2 445.511 207.68C444.111 210.16 442.191 212.08 439.751 213.44C437.351 214.8 434.631 215.48 431.591 215.48ZM412.511 226.64V182.72H421.451V189.32L421.271 198.92L421.871 208.46V226.64H412.511ZM429.971 207.8C431.531 207.8 432.911 207.44 434.111 206.72C435.351 206 436.331 204.98 437.051 203.66C437.811 202.3 438.191 200.7 438.191 198.86C438.191 196.98 437.811 195.38 437.051 194.06C436.331 192.74 435.351 191.72 434.111 191C432.911 190.28 431.531 189.92 429.971 189.92C428.411 189.92 427.011 190.28 425.771 191C424.531 191.72 423.551 192.74 422.831 194.06C422.111 195.38 421.751 196.98 421.751 198.86C421.751 200.7 422.111 202.3 422.831 203.66C423.551 204.98 424.531 206 425.771 206.72C427.011 207.44 428.411 207.8 429.971 207.8ZM484.129 215.48C480.329 215.48 477.369 214.52 475.249 212.6C473.129 210.64 472.069 207.74 472.069 203.9V175.58H481.429V203.78C481.429 205.14 481.789 206.2 482.509 206.96C483.229 207.68 484.209 208.04 485.449 208.04C486.929 208.04 488.189 207.64 489.229 206.84L491.749 213.44C490.789 214.12 489.629 214.64 488.269 215C486.949 215.32 485.569 215.48 484.129 215.48ZM467.089 190.64V183.44H489.469V190.64H467.089ZM511.368 215.48C507.928 215.48 504.868 214.76 502.188 213.32C499.548 211.88 497.448 209.92 495.888 207.44C494.368 204.92 493.608 202.06 493.608 198.86C493.608 195.62 494.368 192.76 495.888 190.28C497.448 187.76 499.548 185.8 502.188 184.4C504.868 182.96 507.928 182.24 511.368 182.24C514.768 182.24 517.808 182.96 520.488 184.4C523.168 185.8 525.268 187.74 526.788 190.22C528.308 192.7 529.068 195.58 529.068 198.86C529.068 202.06 528.308 204.92 526.788 207.44C525.268 209.92 523.168 211.88 520.488 213.32C517.808 214.76 514.768 215.48 511.368 215.48ZM511.368 207.8C512.928 207.8 514.328 207.44 515.568 206.72C516.808 206 517.788 204.98 518.508 203.66C519.228 202.3 519.588 200.7 519.588 198.86C519.588 196.98 519.228 195.38 518.508 194.06C517.788 192.74 516.808 191.72 515.568 191C514.328 190.28 512.928 189.92 511.368 189.92C509.808 189.92 508.408 190.28 507.168 191C505.928 191.72 504.928 192.74 504.168 194.06C503.448 195.38 503.088 196.98 503.088 198.86C503.088 200.7 503.448 202.3 504.168 203.66C504.928 204.98 505.928 206 507.168 206.72C508.408 207.44 509.808 207.8 511.368 207.8Z" fill="white"/>
<path d="M488.525 146V128.5H496.725C498.825 128.5 500.425 128.917 501.525 129.75C502.625 130.567 503.175 131.667 503.175 133.05C503.175 133.983 502.959 134.783 502.525 135.45C502.092 136.1 501.509 136.608 500.775 136.975C500.059 137.325 499.275 137.5 498.425 137.5L498.875 136.6C499.859 136.6 500.742 136.783 501.525 137.15C502.309 137.5 502.925 138.017 503.375 138.7C503.842 139.383 504.075 140.233 504.075 141.25C504.075 142.75 503.5 143.917 502.35 144.75C501.2 145.583 499.492 146 497.225 146H488.525ZM491.775 143.45H497.025C498.242 143.45 499.175 143.25 499.825 142.85C500.475 142.45 500.8 141.808 500.8 140.925C500.8 140.058 500.475 139.425 499.825 139.025C499.175 138.608 498.242 138.4 497.025 138.4H491.525V135.875H496.375C497.509 135.875 498.375 135.675 498.975 135.275C499.592 134.875 499.9 134.275 499.9 133.475C499.9 132.658 499.592 132.05 498.975 131.65C498.375 131.25 497.509 131.05 496.375 131.05H491.775V143.45ZM507.544 146V128.5H510.794V143.25H519.944V146H507.544ZM520.059 146L527.934 128.5H531.134L539.034 146H535.634L528.859 130.225H530.159L523.409 146H520.059ZM523.684 141.95L524.559 139.4H534.009L534.884 141.95H523.684ZM549.116 146.25C547.782 146.25 546.541 146.033 545.391 145.6C544.257 145.15 543.266 144.525 542.416 143.725C541.582 142.908 540.932 141.95 540.466 140.85C539.999 139.75 539.766 138.55 539.766 137.25C539.766 135.95 539.999 134.75 540.466 133.65C540.932 132.55 541.591 131.6 542.441 130.8C543.291 129.983 544.282 129.358 545.416 128.925C546.549 128.475 547.791 128.25 549.141 128.25C550.574 128.25 551.882 128.5 553.066 129C554.249 129.483 555.249 130.208 556.066 131.175L553.966 133.15C553.332 132.467 552.624 131.958 551.841 131.625C551.057 131.275 550.207 131.1 549.291 131.1C548.374 131.1 547.532 131.25 546.766 131.55C546.016 131.85 545.357 132.275 544.791 132.825C544.241 133.375 543.807 134.025 543.491 134.775C543.191 135.525 543.041 136.35 543.041 137.25C543.041 138.15 543.191 138.975 543.491 139.725C543.807 140.475 544.241 141.125 544.791 141.675C545.357 142.225 546.016 142.65 546.766 142.95C547.532 143.25 548.374 143.4 549.291 143.4C550.207 143.4 551.057 143.233 551.841 142.9C552.624 142.55 553.332 142.025 553.966 141.325L556.066 143.325C555.249 144.275 554.249 145 553.066 145.5C551.882 146 550.566 146.25 549.116 146.25ZM562.08 141.875L561.905 138.025L571.08 128.5H574.73L567.105 136.6L565.305 138.575L562.08 141.875ZM559.18 146V128.5H562.43V146H559.18ZM571.38 146L564.68 138.025L566.83 135.65L575.18 146H571.38ZM587.277 136.55H596.002V139.3H587.277V136.55ZM587.552 146H584.302V128.5H597.077V131.225H587.552V146ZM600.22 146V128.5H607.42C608.97 128.5 610.295 128.75 611.395 129.25C612.511 129.75 613.37 130.467 613.97 131.4C614.57 132.333 614.87 133.442 614.87 134.725C614.87 136.008 614.57 137.117 613.97 138.05C613.37 138.967 612.511 139.675 611.395 140.175C610.295 140.658 608.97 140.9 607.42 140.9H602.02L603.47 139.425V146H600.22ZM611.67 146L607.245 139.65H610.72L615.17 146H611.67ZM603.47 139.775L602.02 138.225H607.27C608.703 138.225 609.778 137.917 610.495 137.3C611.228 136.683 611.595 135.825 611.595 134.725C611.595 133.608 611.228 132.75 610.495 132.15C609.778 131.55 608.703 131.25 607.27 131.25H602.02L603.47 129.65V139.775ZM618.506 146V128.5H621.756V146H618.506ZM626.489 146V128.5H634.139C636.039 128.5 637.706 128.867 639.139 129.6C640.572 130.333 641.689 131.35 642.489 132.65C643.289 133.95 643.689 135.483 643.689 137.25C643.689 139 643.289 140.533 642.489 141.85C641.689 143.15 640.572 144.167 639.139 144.9C637.706 145.633 636.039 146 634.139 146H626.489ZM629.739 143.25H633.989C635.306 143.25 636.439 143 637.389 142.5C638.356 142 639.097 141.3 639.614 140.4C640.147 139.5 640.414 138.45 640.414 137.25C640.414 136.033 640.147 134.983 639.614 134.1C639.097 133.2 638.356 132.5 637.389 132C636.439 131.5 635.306 131.25 633.989 131.25H629.739V143.25ZM644.424 146L652.299 128.5H655.499L663.399 146H659.999L653.224 130.225H654.524L647.774 146H644.424ZM648.049 141.95L648.924 139.4H658.374L659.249 141.95H648.049ZM668.875 146V139.075L669.6 141.075L662 128.5H665.475L671.575 138.625H669.625L675.775 128.5H678.975L671.375 141.075L672.125 139.075V146H668.875ZM693.438 146.25C692.071 146.25 690.763 146.058 689.513 145.675C688.263 145.275 687.271 144.767 686.538 144.15L687.663 141.625C688.363 142.175 689.229 142.633 690.263 143C691.296 143.367 692.354 143.55 693.438 143.55C694.354 143.55 695.096 143.45 695.663 143.25C696.229 143.05 696.646 142.783 696.913 142.45C697.179 142.1 697.313 141.708 697.313 141.275C697.313 140.742 697.121 140.317 696.738 140C696.354 139.667 695.854 139.408 695.238 139.225C694.638 139.025 693.963 138.842 693.213 138.675C692.479 138.508 691.738 138.317 690.988 138.1C690.254 137.867 689.579 137.575 688.963 137.225C688.363 136.858 687.871 136.375 687.488 135.775C687.104 135.175 686.913 134.408 686.913 133.475C686.913 132.525 687.163 131.658 687.663 130.875C688.179 130.075 688.954 129.442 689.988 128.975C691.038 128.492 692.363 128.25 693.963 128.25C695.013 128.25 696.054 128.383 697.088 128.65C698.121 128.917 699.021 129.3 699.788 129.8L698.763 132.325C697.979 131.858 697.171 131.517 696.338 131.3C695.504 131.067 694.704 130.95 693.938 130.95C693.038 130.95 692.304 131.058 691.738 131.275C691.188 131.492 690.779 131.775 690.513 132.125C690.263 132.475 690.138 132.875 690.138 133.325C690.138 133.858 690.321 134.292 690.688 134.625C691.071 134.942 691.563 135.192 692.163 135.375C692.779 135.558 693.463 135.742 694.213 135.925C694.963 136.092 695.704 136.283 696.438 136.5C697.188 136.717 697.863 137 698.463 137.35C699.079 137.7 699.571 138.175 699.938 138.775C700.321 139.375 700.513 140.133 700.513 141.05C700.513 141.983 700.254 142.85 699.738 143.65C699.238 144.433 698.463 145.067 697.413 145.55C696.363 146.017 695.038 146.25 693.438 146.25ZM701.26 146L709.135 128.5H712.335L720.235 146H716.835L710.06 130.225H711.36L704.61 146H701.26ZM704.885 141.95L705.76 139.4H715.21L716.085 141.95H704.885ZM722.461 146V128.5H725.711V143.25H734.861V146H722.461ZM740.427 135.775H749.127V138.45H740.427V135.775ZM740.677 143.275H750.552V146H737.427V128.5H750.202V131.225H740.677V143.275Z" fill="#1C2A39"/>
<defs>
<filter id="filter0_d_1_180" x="0" y="0" width="1238" height="820" filterUnits="userSpaceOnUse" color-interpolation-filters="sRGB">
<feFlood flood-opacity="0" result="BackgroundImageFix"/>
<feColorMatrix in="SourceAlpha" type="matrix" values="0 0 0 0 0 0 0 0 0 0 0 0 0 0 0 0 0 0 127 0" result="hardAlpha"/>
<feOffset dy="6"/>
<feGaussianBlur stdDeviation="29.5"/>
<feColorMatrix type="matrix" values="0 0 0 0 0.208402 0 0 0 0 0.190642 0 0 0 0 0.329167 0 0 0 0.08 0"/>
<feBlend mode="normal" in2="BackgroundImageFix" result="effect1_dropShadow_1_180"/>
<feBlend mode="normal" in="SourceGraphic" in2="effect1_dropShadow_1_180" result="shape"/>
</filter>
<clipPath id="clip0_1_180">
<rect width="1016.1" height="452.459" fill="white" transform="translate(111 281)"/>
</clipPath>
</defs>
</svg>
