<svg width="1453" height="1016" viewBox="0 0 1453 1016" fill="none" xmlns="http://www.w3.org/2000/svg">
<g filter="url(#filter0_d_4_437)">
<path d="M59 53H1394V951H59V53Z" fill="#FFE0E2"/>
</g>
<path fill-rule="evenodd" clip-rule="evenodd" d="M877.637 84.7873L872.739 81.1425L861.192 99.0124L866.089 102.657L877.637 84.7873ZM243.899 102.889L249.812 103.687L247.284 125.264L241.371 124.465L243.899 102.889ZM146.874 131.031L149.854 136.57L132.306 147.444L129.326 141.905L146.874 131.031ZM387.61 252.556L392.507 256.2L380.96 274.07L376.062 270.425L387.61 252.556ZM323.714 182.998L317.801 182.199L315.272 203.776L321.186 204.574L323.714 182.998ZM115.693 201.388L111.446 205.875L125.664 221.37L129.911 216.883L115.693 201.388ZM1069.45 267.906L1072.43 273.445L1054.89 284.318L1051.91 278.779L1069.45 267.906ZM1319.17 128.895L1316.19 123.356L1298.64 134.229L1301.62 139.768L1319.17 128.895ZM1249.92 334.424L1255.83 335.223L1253.3 356.799L1247.39 356.001L1249.92 334.424ZM1311.85 606.414L1305.94 605.615L1303.41 627.192L1309.32 627.99L1311.85 606.414ZM1090.05 436.132L1094.3 431.644L1108.51 447.139L1104.27 451.627L1090.05 436.132ZM916.693 452.111L912.446 456.599L926.664 472.094L930.911 467.606L916.693 452.111ZM320.513 346.624L317.656 341.011L335.44 330.587L338.297 336.2L320.513 346.624ZM222.757 357.742L228.651 358.69L231.655 337.184L225.761 336.236L222.757 357.742ZM117.34 313.386L111.446 312.438L114.45 290.931L120.344 291.88L117.34 313.386ZM663.326 559.324L669.22 560.272L672.224 538.766L666.33 537.818L663.326 559.324ZM736.403 773.197L733.337 778.682L715.96 767.497L719.025 762.012L736.403 773.197ZM438.805 338.025L443.149 333.647L429.277 317.795L424.933 322.173L438.805 338.025ZM562.37 118.239L567.268 121.884L555.721 139.754L550.823 136.109L562.37 118.239ZM544.602 337.67L541.745 332.057L559.529 321.633L562.386 327.246L544.602 337.67ZM384.406 131.222L387.263 136.835L405.047 126.411L402.19 120.798L384.406 131.222ZM455.858 206.465L449.964 205.517L452.968 184.011L458.862 184.959L455.858 206.465ZM659.318 148.703L663.663 144.325L649.791 128.473L645.447 132.851L659.318 148.703ZM233.137 616.543L227.067 615.623L230.066 594.103L236.137 595.023L233.137 616.543ZM146.286 521.583L141.254 517.925L129.326 535.763L134.358 539.421L146.286 521.583ZM278.321 419.543L284.157 417.572L290.583 438.261L284.748 440.232L278.321 419.543ZM727.568 440.598L721.732 442.569L728.159 463.257L733.994 461.286L727.568 440.598ZM1152.5 147.069L1149.65 141.456L1167.43 131.031L1170.29 136.645L1152.5 147.069ZM1220.15 236.309L1226.1 235.876L1224.73 214.179L1218.78 214.612L1220.15 236.309ZM1043.95 145.063L1038.06 144.115L1041.06 122.609L1046.96 123.557L1043.95 145.063ZM943.363 274.431L946.267 268.845L928.57 258.251L925.667 263.837L943.363 274.431ZM1258.05 750.873L1252.16 749.925L1255.16 728.419L1261.05 729.367L1258.05 750.873ZM1136.41 321.632L1130.58 323.603L1137 344.291L1142.84 342.321L1136.41 321.632ZM1005.42 510.367L1011.26 508.396L1017.68 529.084L1011.85 531.055L1005.42 510.367ZM415.144 674.692L413.013 680.69L432.571 688.244L434.701 682.246L415.144 674.692ZM414.474 461.956L418.873 457.607L433.241 473.726L428.842 478.075L414.474 461.956ZM447.7 478.504L445.725 472.445L426.238 480.204L428.213 486.263L447.7 478.504Z" fill="#FFEFF0"/>
<path fill-rule="evenodd" clip-rule="evenodd" d="M967.38 152.588C968.444 147.478 973.92 144.916 978.526 147.371L1005.93 161.978C1009.27 163.759 1011.03 167.656 1010.16 171.336L1003.29 200.239C1002.24 204.694 997.745 207.21 993.428 205.766L965.76 196.509C961.794 195.182 959.39 190.965 960.249 186.841L967.38 152.588ZM163.896 241.121C162.076 245.961 165.257 251.388 170.372 252.167L236.99 262.308C241.134 262.939 244.955 260.213 245.734 256.072L255.92 201.914C256.761 197.439 253.746 193.042 249.285 192.237L192.866 182.06C189.174 181.394 185.599 183.42 184.28 186.927L163.896 241.121ZM1223.82 407.348C1222.1 412.236 1225.41 417.599 1230.54 418.256L1310.85 428.536C1314.91 429.056 1318.6 426.375 1319.4 422.337L1335.42 340.713C1336.31 336.166 1333.21 331.686 1328.65 330.95L1261.2 320.042C1257.49 319.442 1253.95 321.549 1252.7 325.097L1223.82 407.348ZM482.423 570.439C481.532 575.579 476.139 578.341 471.445 576.06L390.459 536.709C387.055 535.054 385.16 531.23 385.909 527.525L402.762 444.161C403.668 439.676 408.074 436.998 412.442 438.277L493.724 462.074C497.74 463.249 500.291 467.371 499.572 471.521L482.423 570.439ZM196.705 919.298C198.692 924.249 204.712 925.671 208.774 922.15L255.437 881.688C258.383 879.134 259.242 874.801 257.481 871.38L210.525 780.118C208.311 775.815 202.919 774.674 199.074 777.696L159.101 809.116C156.15 811.435 155.047 815.528 156.438 818.994L196.705 919.298ZM1040.16 692.804C1035.97 695.951 1030.21 694.236 1028.44 689.315L1018.17 660.788C1016.88 657.215 1018.18 653.102 1021.29 650.92L1039.84 637.895C1043.65 635.219 1048.72 636.409 1050.89 640.488L1064.3 665.737C1066.23 669.359 1065.17 674.013 1061.86 676.501L1040.16 692.804ZM1305.43 913.138C1310.72 913.324 1314.83 908.339 1313.65 903.156L1298.91 838.367C1297.93 834.036 1293.61 831.424 1289.3 832.554L1263.79 839.236C1259.59 840.338 1256.95 844.595 1257.84 848.835L1269.86 905.949C1270.6 909.479 1273.61 912.018 1277.2 912.145L1305.43 913.138ZM176.426 372.292C176.326 367.086 171.391 363.447 166.385 364.886L135.648 373.727C131.671 374.871 129.157 378.854 129.844 382.921L135.184 414.505C135.952 419.051 140.388 421.931 144.869 420.795L170.917 414.185C174.582 413.256 177.15 409.889 177.077 406.107L176.426 372.292Z" fill="#FFE6E7"/>
<g clip-path="url(#clip0_4_437)">
<path d="M129.218 396.401L144.457 458.243L180.393 446.903L165.153 385.061L129.218 396.401Z" fill="#362E2D"/>
<path d="M125.988 400.635L129.088 396.723L163.297 390.114L178.554 445.821L165.681 478.598L141.603 460.793L125.988 400.635Z" fill="white"/>
<path d="M151.735 424.509L166.992 481.161L141.126 462.412L125.988 400.635L151.735 424.509Z" fill="#4E3734"/>
<path d="M129.088 397.802L161.032 396.453L176.528 450.947L178.554 445.821L163.297 390.114L130.041 396.453L129.088 397.802Z" fill="#F7F7F7"/>
<path d="M272.242 488.04C292.321 488.04 308.597 469.621 308.597 446.9C308.597 424.179 292.321 405.76 272.242 405.76C252.164 405.76 235.888 424.179 235.888 446.9C235.888 469.621 252.164 488.04 272.242 488.04Z" fill="#8C503E"/>
<path d="M438.283 836.31C438.283 836.31 442.813 849.124 444.839 856.138C446.865 863.152 450.441 871.919 453.421 872.189C456.401 872.459 456.997 859.375 455.09 839.412C453.183 819.584 454.613 816.752 444.958 816.886C440.667 816.886 438.283 816.482 438.283 816.482V836.31V836.31Z" fill="#FF6ED9"/>
<path d="M171.283 905.64C171.283 905.64 158.291 907.933 151.496 911.035C144.702 914.138 139.458 917.24 139.458 921.017C139.458 923.984 151.854 923.04 171.164 923.04C190.95 923.175 196.553 923.714 193.096 912.384C191.904 908.473 188.805 905.235 188.805 905.235L171.283 905.64Z" fill="#FF6ED9"/>
<path d="M308.597 446.9C308.597 424.105 292.267 405.76 272.242 405.76C266.759 405.76 261.515 407.109 256.866 409.672L255.913 410.212C254.721 412.774 254.005 415.607 254.005 418.709C254.005 428.556 261.038 436.514 269.739 436.514C270.454 436.514 271.17 436.379 272.004 436.379C271.05 437.728 270.574 439.481 270.574 441.37C270.574 445.551 273.434 449.058 277.01 449.598C276.653 450.677 276.533 451.756 276.533 452.835C276.533 457.96 280.229 462.142 284.758 462.142H284.877C285.592 465.919 288.453 468.616 292.029 468.616C292.983 468.616 293.936 468.346 294.771 468.077C295.247 470.909 297.512 473.067 300.134 473.067L302.161 470.909C306.094 464.165 308.597 455.802 308.597 446.9Z" fill="#4E3734"/>
<path d="M163.655 495.323C163.655 495.323 164.37 481.97 160.913 474.821C157.456 467.672 150.066 463.761 146.609 457.556C143.272 451.351 143.391 442.854 140.173 442.044C136.955 441.235 131.591 455.802 135.047 462.816C138.385 469.83 142.676 474.416 144.821 481.565C146.967 488.714 150.305 495.054 152.331 497.077C154.476 499.1 163.655 495.323 163.655 495.323Z" fill="#8C503E"/>
<path d="M366.884 655.7C366.884 655.7 371.056 668.244 376.897 673.1C382.618 677.956 390.843 678.091 396.207 682.272C401.571 686.319 404.431 694.142 407.65 693.333C410.868 692.524 410.391 676.742 404.789 672.021C399.187 667.165 393.584 665.007 389.055 659.477C384.525 653.947 379.162 649.765 376.539 648.821C373.917 647.877 366.884 655.7 366.884 655.7Z" fill="#8C503E"/>
<path d="M228.497 683.351C228.497 683.351 205.254 738.249 195.122 780.872C181.772 837.254 171.283 905.775 171.283 905.775L188.686 905.505C188.686 905.505 209.784 877.719 240.298 821.473C271.05 764.686 284.996 728.672 284.996 728.672C284.996 728.672 305.617 812.84 319.087 826.059C337.92 844.538 381.903 843.728 395.849 842.649C409.795 841.57 438.164 836.445 438.164 836.445V816.617C438.164 816.617 402.405 810.142 388.101 803.398C373.798 796.654 356.753 791.124 356.753 791.124C356.753 791.124 351.031 746.072 346.859 722.198C342.688 698.324 336.966 670.942 336.966 670.942L228.497 683.351Z" fill="#5441AF"/>
<path d="M285.116 728.538L292.029 712.082C292.029 712.082 295.963 720.849 295.486 732.045C295.128 743.24 292.983 758.212 292.983 758.212L285.116 728.538Z" fill="#4F3D9D"/>
<path d="M120.982 514.477C120.982 514.477 127.18 514.747 137.312 522.165C159.959 538.756 167.35 574.635 194.765 579.895C217.77 584.347 232.669 576.523 232.669 576.523C232.669 576.523 223.729 605.523 221.346 618.742C218.962 631.961 219.2 655.835 209.664 666.356C200.129 676.877 195.718 681.868 195.718 681.868C195.718 681.868 237.437 690.365 271.17 683.216C304.902 676.068 323.259 673.505 329.338 673.775C335.536 674.044 345.071 675.393 345.071 675.393C345.071 675.393 341.257 665.682 337.681 655.835C334.105 645.989 333.271 636.007 333.271 636.007C333.271 636.007 355.918 656.509 359.494 663.254C363.07 669.998 363.666 681.193 363.666 681.193C363.666 681.193 368.792 668.649 372.367 664.333C375.943 660.016 378.685 654.891 383.095 651.114C387.505 647.337 390.009 644.37 390.009 644.37C390.009 644.37 385.241 644.775 381.069 640.593C376.897 636.277 353.415 603.77 348.647 598.509C343.879 593.384 326 571.263 326 571.263C326 571.263 323.854 500.854 287.023 502.202C263.78 503.012 250.31 509.621 235.53 518.658C220.869 527.695 207.876 537.542 207.876 537.542C207.876 537.542 182.845 520.412 174.144 499.909C171.164 493.03 169.853 487.905 169.853 487.905C169.853 487.905 160.675 489.793 148.04 496.807C134.571 504.495 120.982 514.477 120.982 514.477Z" fill="#FF353A"/>
<path d="M232.669 576.523C232.669 576.523 245.662 576.119 257.939 571.937C270.216 567.621 283.447 561.012 286.665 552.514C289.884 544.016 291.314 535.384 291.314 535.384C291.314 535.384 293.579 549.547 288.334 562.9C283.089 576.254 266.163 582.728 259.846 585.291C253.529 587.854 228.021 592.44 228.021 592.44L232.669 576.523Z" fill="#E2303D"/>
<path d="M327.43 586.37C327.43 586.37 329.338 610.109 330.172 617.123C331.006 624.137 333.509 636.277 333.509 636.277L339.708 641.942C339.708 641.942 335.297 626.97 333.629 616.314C331.721 605.658 327.43 586.37 327.43 586.37Z" fill="#E2303D"/>
<path d="M281.182 674.044C277.01 674.044 273.673 670.268 273.673 665.547C273.673 660.826 277.01 657.049 281.182 657.049C285.354 657.049 288.692 660.826 288.692 665.547C288.692 670.268 285.354 674.044 281.182 674.044ZM281.182 658.398C277.726 658.398 274.865 661.635 274.865 665.547C274.865 669.458 277.726 672.696 281.182 672.696C284.639 672.696 287.5 669.458 287.5 665.547C287.5 661.635 284.758 658.398 281.182 658.398Z" fill="#5441AF"/>
<path d="M314.08 537.947C316.464 537.947 318.61 536.598 320.04 534.575C319.921 534.035 319.683 533.495 319.563 532.956C318.491 535.114 316.464 536.463 314.2 536.463C310.743 536.463 307.882 533.226 307.882 529.314C307.882 525.402 310.743 522.165 314.2 522.165C314.557 522.165 314.915 522.165 315.272 522.3C315.034 521.761 314.796 521.356 314.557 520.816C314.438 520.816 314.319 520.816 314.2 520.816C310.028 520.816 306.69 524.593 306.69 529.314C306.69 534.035 309.908 537.947 314.08 537.947Z" fill="#5441AF"/>
<path d="M215.863 677.821C221.822 677.821 226.709 672.291 226.709 665.547C226.709 658.803 221.942 653.407 215.982 653.272C215.863 653.677 215.743 654.217 215.624 654.621C215.743 654.621 215.743 654.621 215.863 654.621C221.226 654.621 225.517 659.477 225.517 665.547C225.517 671.617 221.226 676.472 215.863 676.472C211.81 676.472 208.234 673.505 206.804 669.458C206.446 669.863 206.208 670.133 205.85 670.537C207.638 674.854 211.452 677.821 215.863 677.821Z" fill="#5441AF"/>
<path d="M244.946 544.151C240.179 544.151 236.364 539.835 236.364 534.44C236.364 529.044 240.179 524.728 244.946 524.728C249.714 524.728 253.529 529.044 253.529 534.44C253.529 539.835 249.595 544.151 244.946 544.151ZM244.946 526.212C240.894 526.212 237.556 529.989 237.556 534.575C237.556 539.161 240.894 542.937 244.946 542.937C248.999 542.937 252.337 539.161 252.337 534.575C252.337 529.989 248.999 526.212 244.946 526.212Z" fill="#5441AF"/>
<path d="M176.766 526.212C173.786 526.212 171.283 523.379 171.283 520.007C171.283 516.635 173.786 513.802 176.766 513.802C179.746 513.802 182.249 516.635 182.249 520.007C182.249 523.379 179.746 526.212 176.766 526.212ZM176.766 515.151C174.382 515.151 172.475 517.309 172.475 520.007C172.475 522.705 174.382 524.863 176.766 524.863C179.15 524.863 181.057 522.705 181.057 520.007C181.057 517.309 179.15 515.151 176.766 515.151Z" fill="#5441AF"/>
<path d="M353.296 604.175C352.581 605.658 351.151 606.602 349.601 606.602C347.217 606.602 345.31 604.444 345.31 601.747C345.31 599.858 346.263 598.24 347.694 597.43C347.455 597.161 347.098 596.756 346.859 596.486C345.191 597.565 344.118 599.589 344.118 601.882C344.118 605.254 346.621 608.086 349.601 608.086C351.508 608.086 353.177 607.007 354.13 605.389C353.892 604.849 353.654 604.444 353.296 604.175Z" fill="#5441AF"/>
<path d="M295.486 589.203C292.506 589.203 290.003 586.37 290.003 582.998C290.003 579.626 292.506 576.793 295.486 576.793C298.466 576.793 300.969 579.626 300.969 582.998C300.969 586.37 298.585 589.203 295.486 589.203ZM295.486 578.277C293.102 578.277 291.195 580.435 291.195 583.133C291.195 585.83 293.102 587.989 295.486 587.989C297.87 587.989 299.777 585.83 299.777 583.133C299.777 580.435 297.87 578.277 295.486 578.277Z" fill="#5441AF"/>
<path d="M137.908 516.5C136.001 516.5 134.332 517.849 133.498 519.602C133.855 519.872 134.213 520.007 134.571 520.277C135.167 518.793 136.478 517.849 137.908 517.849C139.934 517.849 141.603 519.737 141.603 522.03C141.603 523.109 141.246 524.189 140.53 524.863C140.888 525.133 141.126 525.402 141.484 525.672C142.318 524.728 142.795 523.379 142.795 522.03C142.795 518.928 140.65 516.5 137.908 516.5Z" fill="#5441AF"/>
<path d="M238.033 618.877C234.457 618.877 231.596 615.64 231.596 611.593C231.596 607.547 234.457 604.309 238.033 604.309C241.609 604.309 244.47 607.547 244.47 611.593C244.47 615.64 241.609 618.877 238.033 618.877ZM238.033 605.523C235.172 605.523 232.788 608.221 232.788 611.458C232.788 614.696 235.172 617.393 238.033 617.393C240.894 617.393 243.278 614.696 243.278 611.458C243.278 608.221 241.013 605.523 238.033 605.523Z" fill="#5441AF"/>
<path d="M355.68 647.472C353.058 647.472 350.793 649.226 349.72 651.789C350.078 652.058 350.316 652.463 350.674 652.733C351.389 650.44 353.296 648.686 355.68 648.686C358.541 648.686 360.925 651.384 360.925 654.621C360.925 657.184 359.494 659.342 357.468 660.151C357.825 660.556 358.064 660.826 358.302 661.23C360.567 660.016 362.117 657.589 362.117 654.621C362.117 650.71 359.256 647.472 355.68 647.472Z" fill="#5441AF"/>
<path d="M218.127 568.835C215.386 568.835 213.24 566.407 213.24 563.305C213.24 560.202 215.386 557.775 218.127 557.775C220.869 557.775 223.014 560.202 223.014 563.305C223.014 566.407 220.869 568.835 218.127 568.835ZM218.127 559.123C216.101 559.123 214.432 561.012 214.432 563.305C214.432 565.598 216.101 567.486 218.127 567.486C220.154 567.486 221.822 565.598 221.822 563.305C221.822 561.012 220.154 559.123 218.127 559.123Z" fill="#5441AF"/>
<path d="M314.08 636.412C310.266 636.412 307.286 632.905 307.286 628.723C307.286 624.542 310.385 621.035 314.08 621.035C317.775 621.035 320.875 624.542 320.875 628.723C320.875 632.905 317.895 636.412 314.08 636.412ZM314.08 622.249C310.981 622.249 308.478 625.082 308.478 628.589C308.478 632.096 310.981 634.928 314.08 634.928C317.179 634.928 319.683 632.096 319.683 628.589C319.683 625.082 317.179 622.249 314.08 622.249Z" fill="#5441AF"/>
<path d="M266.283 632.77C264.256 632.77 262.707 630.882 262.707 628.724C262.707 626.43 264.375 624.677 266.283 624.677C268.19 624.677 269.859 626.565 269.859 628.724C269.859 630.882 268.309 632.77 266.283 632.77ZM266.283 625.891C264.971 625.891 263.899 627.105 263.899 628.589C263.899 630.072 264.971 631.286 266.283 631.286C267.594 631.286 268.667 630.072 268.667 628.589C268.667 627.105 267.594 625.891 266.283 625.891Z" fill="#5441AF"/>
<path d="M179.746 573.016C180.7 571.668 181.296 569.914 181.296 567.891C181.296 563.17 177.958 559.393 173.786 559.393C171.879 559.393 170.091 560.202 168.78 561.551C169.018 561.956 169.376 562.226 169.614 562.63C170.687 561.551 172.237 560.742 173.786 560.742C177.243 560.742 180.104 563.979 180.104 567.891C180.104 569.509 179.627 570.993 178.792 572.207C179.031 572.477 179.388 572.747 179.746 573.016Z" fill="#5441AF"/>
<path d="M152.331 910.226C152.331 910.226 153.642 911.035 154.476 912.519C155.311 914.003 155.072 916.296 155.072 916.296" stroke="#5441AF" stroke-miterlimit="10"/>
<path d="M156.741 908.203C156.741 908.203 158.052 909.012 158.887 910.496C159.721 911.98 159.483 914.273 159.483 914.273" stroke="#5441AF" stroke-miterlimit="10"/>
<path d="M161.032 906.989C161.032 906.989 162.343 907.798 163.178 909.282C164.012 910.766 163.774 913.059 163.774 913.059" stroke="#5441AF" stroke-miterlimit="10"/>
<path d="M164.966 905.505C164.966 905.505 166.277 906.314 167.111 907.798C167.946 909.282 167.707 911.575 167.707 911.575" stroke="#5441AF" stroke-miterlimit="10"/>
<path d="M443.885 855.193C443.885 855.193 444.481 853.575 445.792 852.631C447.104 851.686 449.13 851.821 449.13 851.821" stroke="#5441AF" stroke-miterlimit="10"/>
<path d="M441.859 850.338C441.859 850.338 442.455 848.719 443.766 847.775C445.077 846.831 447.104 846.966 447.104 846.966" stroke="#5441AF" stroke-miterlimit="10"/>
<path d="M440.667 845.482C440.667 845.482 441.263 843.863 442.574 842.919C443.885 841.975 445.912 842.11 445.912 842.11" stroke="#5441AF" stroke-miterlimit="10"/>
<path d="M439.117 841.166C439.117 841.166 439.713 839.547 441.025 838.603C442.336 837.659 444.362 837.794 444.362 837.794" stroke="#5441AF" stroke-miterlimit="10"/>
<path d="M744.499 490.737L782.403 542.263L764.762 571.668L728.288 522.975L744.499 490.737Z" fill="#4F3D9D"/>
<path d="M728.288 526.347L728.407 523.244L744.618 492.761L780.496 542.263L768.219 562.226L755.346 556.426L728.288 526.347Z" fill="white"/>
<path d="M791.462 582.324L793.25 580.435L760.829 535.924L728.288 525.403V526.347L737.466 539.7L791.462 582.324Z" fill="#F7F7F7"/>
<path d="M760.113 537.272L793.25 583.268L763.093 576.928L728.288 526.347L760.113 537.272Z" fill="#5441AF"/>
<path d="M728.288 522.975V526.347L729.003 526.617L728.884 521.626L728.288 522.975Z" fill="#362E2D"/>
<path d="M836.876 707.765C836.876 707.765 812.083 732.045 802.547 742.161C793.012 752.277 788.244 756.324 785.86 763.742C783.476 771.161 778.112 824.44 777.159 841.031C776.205 857.621 775.371 893.366 775.371 893.366H791.82C791.82 893.366 797.78 869.761 803.739 855.868C809.699 841.975 818.401 826.193 822.215 814.054C826.029 801.914 827.936 785.324 827.936 785.324C827.936 785.324 843.193 783.705 861.073 773.589C878.952 763.472 886.462 758.347 886.462 758.347C886.462 758.347 897.547 783.3 907.083 804.207C916.618 825.114 920.194 831.589 928.538 840.626C936.882 849.663 969.303 865.445 984.203 870.57C1004.82 877.584 1022.82 880.282 1022.82 880.282L1025.8 862.342C1025.8 862.342 1001.96 848.719 988.971 838.603C977.051 829.296 967.158 818.775 964.178 810.007C961.198 801.24 956.907 751.198 953.092 728.672C949.278 706.147 941.769 696.57 941.769 696.57L836.876 707.765Z" fill="#FF6ED9"/>
<path d="M886.342 758.347C886.342 758.347 891.23 755.784 895.401 752.817C899.573 749.849 903.03 746.612 903.03 746.612C903.03 746.612 902.076 754.031 899.096 760.505C896.117 766.98 892.541 772.375 892.541 772.375L886.342 758.347Z" fill="#FF5ED2"/>
<path d="M842.597 766.575L835.446 760.235L841.048 752.142L848.2 758.482L842.597 766.575ZM837.114 760.1L842.359 764.687L846.412 758.752L841.167 754.166L837.114 760.1Z" fill="#5441AF"/>
<path d="M799.448 770.756L793.846 769.138L795.276 762.798L800.879 764.417L799.448 770.756ZM795.276 768.193L798.614 769.138L799.448 765.361L796.111 764.417L795.276 768.193Z" fill="#5441AF"/>
<path d="M881.575 739.193L875.972 737.575L877.403 731.235L883.005 732.854L881.575 739.193ZM877.403 736.631L880.74 737.575L881.575 733.798L878.237 732.854L877.403 736.631Z" fill="#5441AF"/>
<path d="M816.851 798.542L809.222 790.719L816.136 782.086L823.764 789.91L816.851 798.542ZM810.891 790.719L816.732 796.789L822.096 790.179L816.255 784.11L810.891 790.719Z" fill="#5441AF"/>
<path d="M918.883 740.677L912.089 733.933L918.049 726.245L924.843 732.989L918.883 740.677ZM913.758 733.933L918.764 738.924L923.174 733.259L918.168 728.268L913.758 733.933Z" fill="#5441AF"/>
<path d="M791.105 879.608L785.502 877.719L787.171 871.38L792.773 873.268L791.105 879.608ZM787.052 876.775L790.27 877.854L791.224 874.212L788.005 873.133L787.052 876.775Z" fill="#5441AF"/>
<path d="M783.595 854.519L781.807 844.942L790.27 842.919L792.058 852.496L783.595 854.519ZM783.238 845.887L784.549 852.901L790.747 851.417L789.436 844.403L783.238 845.887Z" fill="#5441AF"/>
<path d="M780.377 805.152C780.377 805.691 780.258 806.366 780.258 806.905L781.807 805.826L784.787 810.952L780.258 814.324L779.662 813.38C779.542 814.054 779.543 814.863 779.423 815.538L779.781 816.212L786.337 811.491L782.165 804.073L780.377 805.152Z" fill="#5441AF"/>
<path d="M825.671 725.975L820.308 729.617L818.4 726.11C818.043 726.379 817.804 726.649 817.447 727.054L819.831 731.505L827.221 726.514L824.003 720.579C823.645 720.849 823.407 721.119 823.049 721.524L825.671 725.975Z" fill="#5441AF"/>
<path d="M933.306 808.389L927.584 800.431L934.617 793.956L940.339 801.914L933.306 808.389ZM929.372 800.7L933.544 806.5L938.67 801.78L934.498 795.98L929.372 800.7Z" fill="#5441AF"/>
<path d="M936.643 838.738L931.518 835.77L934.14 829.97L939.266 832.938L936.643 838.738ZM933.067 835.231L936.167 836.984L937.716 833.477L934.617 831.724L933.067 835.231Z" fill="#5441AF"/>
<path d="M942.246 759.021L937.12 756.054L939.742 750.254L944.868 753.221L942.246 759.021ZM938.67 755.379L941.769 757.133L943.318 753.626L940.219 751.872L938.67 755.379Z" fill="#5441AF"/>
<path d="M967.038 816.347C966.8 815.942 966.562 815.673 966.323 815.268L962.032 818.64L957.503 811.221L963.105 806.905C962.986 806.5 962.867 805.961 962.867 805.421L955.953 810.817L961.794 820.394L967.038 816.347Z" fill="#5441AF"/>
<path d="M1010.9 866.928L1002.2 866.794L1002.32 856.947L1011.02 857.082L1010.9 866.928ZM1003.39 865.445L1009.71 865.58L1009.83 858.431L1003.51 858.296L1003.39 865.445Z" fill="#5441AF"/>
<path d="M969.661 862.882L967.038 854.519L974.429 851.552L977.051 859.915L969.661 862.882ZM968.588 855.329L970.376 861.129L975.501 859.105L973.713 853.305L968.588 855.329Z" fill="#5441AF"/>
<path d="M899.692 788.156L910.539 792.877L906.844 803.803C906.844 803.938 906.963 804.073 906.963 804.073C907.202 804.477 907.321 804.882 907.559 805.421L912.089 792.068L898.858 786.268C899.096 786.942 899.335 787.482 899.692 788.156Z" fill="#5441AF"/>
<path d="M802.786 831.454L809.342 841.705L810.891 840.356C811.368 839.412 811.726 838.603 812.202 837.659L809.58 839.817L804.455 831.724L811.606 825.924L815.182 831.454C815.421 831.049 815.54 830.51 815.778 830.105L811.964 824.035L802.786 831.454Z" fill="#5441AF"/>
<path d="M888.369 523.244C908.447 523.244 924.724 504.826 924.724 482.105C924.724 459.384 908.447 440.965 888.369 440.965C868.291 440.965 852.014 459.384 852.014 482.105C852.014 504.826 868.291 523.244 888.369 523.244Z" fill="#DF8E89"/>
<path d="M775.49 893.231C775.49 893.231 775.847 898.356 773.94 899.435C770.245 901.863 764.166 905.775 760.709 908.338C755.584 912.115 749.267 918.724 749.863 922.096C750.459 925.333 761.305 922.366 777.039 915.487C792.773 908.742 795.753 910.631 793.012 900.11C791.82 895.389 791.462 892.826 791.462 892.826L775.49 893.231Z" fill="#5441AF"/>
<path d="M1022.58 880.147C1022.58 880.147 1026.99 880.822 1027.71 883.115C1029.02 887.701 1031.29 895.254 1032.83 899.57C1035.1 906.045 1039.63 914.273 1042.61 914.273C1045.59 914.273 1045.11 901.594 1042.37 882.845C1039.63 864.096 1041.89 861.128 1032.24 862.073C1027.95 862.477 1025.68 862.342 1025.68 862.342L1022.58 880.147Z" fill="#5441AF"/>
<path d="M778.827 584.751C778.827 584.751 776.086 571.803 770.841 566.137C765.716 560.472 757.61 559.124 752.723 554.403C747.836 549.682 745.81 541.454 742.592 541.724C739.373 541.993 738.062 557.775 743.068 563.305C748.075 568.835 753.438 571.803 757.372 578.007C761.305 584.212 766.192 589.068 768.576 590.282C770.96 591.496 778.827 584.751 778.827 584.751Z" fill="#DF8E89"/>
<path d="M959.767 443.258C959.767 443.258 959.529 434.086 962.986 426.937C966.442 419.788 976.216 415.472 979.554 409.268C982.891 403.063 988.375 396.858 991.593 396.049C994.811 395.24 994.573 406.435 991.235 413.449C987.898 420.463 980.627 422.216 978.481 429.5C976.336 436.784 972.998 442.988 971.091 445.012C969.065 446.9 959.767 443.258 959.767 443.258Z" fill="#DF8E89"/>
<path d="M862.622 435.974C862.622 435.974 860.238 452.835 873.469 462.007C886.7 471.179 895.997 466.593 895.997 466.593C895.997 466.593 893.256 482.914 901.838 495.728C910.42 508.542 914.234 511.105 914.234 511.105C914.234 511.105 935.571 493.435 930.803 474.416C928.061 463.626 921.625 461.063 921.625 461.063C921.625 461.063 921.982 450.407 912.089 442.179C902.196 433.951 883.124 440.695 875.138 440.156C867.152 439.616 862.622 435.974 862.622 435.974Z" fill="#FF353A"/>
<path d="M767.146 593.114L778.47 579.626L786.813 589.472C786.813 589.472 798.495 591.9 804.216 594.058C809.938 596.217 814.825 599.858 814.825 599.858C814.825 599.858 842.121 571.668 856.663 563.44C871.205 555.077 893.852 549.951 911.493 540.105C929.134 530.258 944.868 511.375 944.868 511.375C944.868 511.375 950.828 490.063 952.973 481.43C955.119 472.933 957.741 457.826 957.741 457.826V442.854H973.237V456.612C973.237 456.612 978.005 471.044 979.435 495.458C980.865 520.007 975.621 539.7 975.621 539.7C975.621 539.7 954.761 561.551 947.371 569.779C939.981 578.142 930.326 589.607 930.326 589.607C930.326 589.607 937.12 617.258 942.842 645.584C948.563 673.91 949.636 699.538 949.636 699.538C949.636 699.538 924.247 721.119 889.203 722.468C854.159 723.817 831.035 708.035 831.035 708.035C831.035 708.035 831.393 684.7 833.062 669.189C834.611 653.677 841.763 630.747 841.763 630.747C841.763 630.747 835.803 638.435 830.201 643.156C824.599 647.877 818.281 651.654 818.281 651.654C818.281 651.654 801.355 645.179 791.105 630.072C780.734 614.965 775.967 602.151 775.967 602.151L767.146 593.114Z" fill="#5441AF"/>
<path d="M841.763 630.882C841.763 630.882 848.438 608.896 852.252 596.756C856.067 584.617 857.855 580.031 857.855 580.031C857.855 580.031 848.557 590.012 843.313 606.603C838.068 623.193 834.134 639.784 834.134 639.784L841.763 630.882Z" fill="#4F3D9D"/>
<path d="M651.645 704.933L654.148 699.807L693.244 674.044L708.621 704.933L707.905 708.71L667.259 735.417L651.645 704.933Z" fill="#FF5ED2"/>
<path d="M692.445 678.304L651.671 704.944L667.167 735.314L707.94 708.675L692.445 678.304Z" fill="#FF6ED9"/>
<path d="M491.921 903.887C491.921 903.887 485.246 857.621 491.564 812.3C498 766.305 508.847 718.286 508.847 718.286C508.847 718.286 543.176 726.379 567.611 721.254C592.046 716.128 621.25 706.821 621.25 706.821C621.25 706.821 626.256 732.854 629.117 763.877C631.858 794.9 630.07 790.18 634.004 805.421C637.937 820.663 651.764 865.175 656.889 878.259C662.134 891.342 667.736 907.528 667.736 907.528H649.499C649.499 907.528 613.502 865.04 598.245 839.412C582.988 813.784 564.154 768.328 564.154 768.328C564.154 768.328 543.891 815.807 535.667 835.5C527.442 855.328 506.821 908.338 506.821 908.338L491.921 903.887Z" fill="#4E3734"/>
<path d="M566.658 545.635C585.88 545.635 601.463 528.001 601.463 506.249C601.463 484.497 585.88 466.863 566.658 466.863C547.435 466.863 531.852 484.497 531.852 506.249C531.852 528.001 547.435 545.635 566.658 545.635Z" fill="#DF8E89"/>
<path d="M596.457 526.751C599.675 520.816 601.582 513.668 601.582 506.249C601.582 484.398 585.967 466.863 566.777 466.863C559.625 466.863 553.069 469.291 547.586 473.472C547.586 473.472 543.772 487.635 553.069 496.942C562.486 506.384 572.617 500.989 572.617 500.989C572.617 500.989 568.684 514.612 578.935 523.109C587.636 530.393 596.457 526.751 596.457 526.751Z" fill="#4E3734"/>
<path d="M600.39 490.333C616.848 490.333 630.189 475.235 630.189 456.612C630.189 437.988 616.848 422.891 600.39 422.891C583.933 422.891 570.591 437.988 570.591 456.612C570.591 475.235 583.933 490.333 600.39 490.333Z" fill="#4E3734"/>
<path d="M568.088 746.073C568.088 746.073 566.896 755.245 565.943 760.1C564.989 764.956 564.035 768.463 564.035 768.463L574.286 792.068C574.286 792.068 574.763 772.51 572.856 761.584C570.949 750.659 568.088 746.073 568.088 746.073Z" fill="#362E2D"/>
<path d="M491.921 903.887C491.921 903.887 480.121 906.18 474.042 906.989C467.963 907.798 460.096 910.091 459.381 913.328C458.666 916.566 469.155 919.803 485.604 921.826C502.053 923.715 503.484 925.873 504.914 915.352C505.51 910.496 506.583 908.608 506.583 908.608L491.921 903.887Z" fill="#FF353A"/>
<path d="M652.479 907.798C652.479 907.798 641.632 909.956 635.911 912.654C630.189 915.352 625.779 918.184 625.779 921.556C625.779 924.119 636.149 923.31 652.36 923.445C668.928 923.58 673.577 923.984 670.716 913.868C669.763 910.361 667.021 907.528 667.021 907.528L652.479 907.798Z" fill="#FF353A"/>
<path d="M457.712 627.375C457.712 627.375 452.229 619.686 448.415 617.258C444.601 614.831 438.045 612.133 434.946 610.11C431.846 608.086 425.648 603.365 423.86 606.468C422.072 609.57 424.814 614.965 429.105 617.798C433.396 620.765 440.071 633.714 446.388 634.658C452.706 635.603 455.447 635.872 455.447 635.872L457.712 627.375Z" fill="#DF8E89"/>
<path d="M668.809 676.338C668.809 676.338 671.551 675.124 675.603 679.71C679.656 684.296 683.47 694.817 684.901 698.728C686.331 702.64 686.688 706.552 688 709.249C689.311 712.082 689.668 715.049 688 716.128C686.331 717.207 681.325 712.891 677.391 708.44C673.458 703.989 668.69 701.021 666.187 694.952C663.803 689.152 664.041 684.431 664.041 684.431L668.809 676.338Z" fill="#DF8E89"/>
<path d="M459.5 621.17C459.5 621.17 478.095 624.947 484.651 626.296C491.206 627.644 498.954 629.263 498.954 629.263C498.954 629.263 517.43 602.556 530.064 587.854C542.699 573.286 549.613 563.17 568.326 563.17C592.404 563.17 620.654 597.7 636.03 618.068C653.79 641.672 670.716 673.1 670.716 673.1L661.419 689.017C661.419 689.017 639.844 670.537 631.262 665.142C622.68 659.747 610.164 652.598 610.164 652.598C610.164 652.598 614.694 666.491 617.793 682.003C620.892 697.514 621.369 706.686 621.369 706.686C621.369 706.686 601.463 721.928 566.419 724.221C531.376 726.514 508.967 718.151 508.967 718.151C508.967 718.151 510.874 702.91 512.9 692.928C514.926 683.082 517.191 674.314 517.191 674.314C517.191 674.314 504.556 675.528 488.226 669.054C467.009 660.691 453.779 641.942 453.779 641.942L459.5 621.17Z" fill="#7B6DCF"/>
<path d="M517.072 674.449C517.072 674.449 514.092 686.589 513.258 690.905C512.423 695.221 511.47 700.617 511.47 700.617C511.47 700.617 548.897 659.207 557.003 649.091C565.108 638.975 579.531 621.035 579.173 605.254C578.816 589.472 576.074 585.965 576.074 585.965C576.074 585.965 577.743 596.082 574.525 606.468C569.995 620.9 551.162 639.649 542.222 649.091C534.832 657.049 517.072 674.449 517.072 674.449Z" fill="#6A5AC1"/>
<path d="M599.437 610.244C599.437 610.244 604.324 626.161 606.231 633.579C608.138 640.998 610.045 652.598 610.045 652.598L617.197 656.779C617.197 656.779 612.071 639.919 608.853 630.612C605.635 621.305 599.437 610.244 599.437 610.244Z" fill="#6A5AC1"/>
<path d="M603.489 663.389L602.893 669.189L606.708 672.965L601.821 674.044L599.794 679.305L597.291 674.314L592.166 673.91L595.622 669.593L594.55 664.063L599.079 666.356L603.489 663.389Z" fill="#FF6ED9"/>
<path d="M621.25 706.821C621.25 706.821 621.13 704.528 620.654 700.212L618.27 703.449L614.098 703.045L616.363 707.091L614.813 711.003C619.104 708.44 621.25 706.821 621.25 706.821Z" fill="#FF6ED9"/>
<path d="M521.959 601.747L523.866 605.523L525.416 601.477L529.23 600.533L526.25 597.7L526.727 593.384L524.343 595.003C522.674 597.026 521.005 599.184 519.337 601.477L521.959 601.747Z" fill="#FF6ED9"/>
<path d="M522.674 721.793L526.846 720.714L522.913 717.072L523.389 711.407L519.098 714.51L514.45 712.352L515.761 717.882L514.211 719.905C516.357 720.445 519.217 721.119 522.674 721.793Z" fill="#FF6ED9"/>
<path d="M582.749 703.045L585.61 703.989L587.875 701.696L587.994 705.068L590.616 706.821L587.875 708.035L587.159 711.272L585.252 708.71L582.392 708.979L583.941 706.147L582.749 703.045Z" fill="#FF6ED9"/>
<path d="M525.535 637.626L529.23 638.705L532.21 635.872L532.448 640.323L535.667 642.482L532.091 644.1L531.256 648.282L528.753 644.91L524.939 645.314L527.085 641.672L525.535 637.626Z" fill="#FF6ED9"/>
<path d="M656.293 648.282L655.936 648.551L652.241 647.472L653.79 651.519L651.764 655.161L655.578 654.756L657.962 658.128L658.797 653.947L659.512 653.677C658.558 651.924 657.485 650.17 656.293 648.282Z" fill="#FF6ED9"/>
<path d="M567.611 646.258L569.638 646.798L571.187 645.314L571.306 647.607L573.094 648.821L571.187 649.631L570.71 651.924L569.399 650.17L567.373 650.44L568.446 648.417L567.611 646.258Z" fill="#FF6ED9"/>
<path d="M497.643 661.5L499.312 660.151V657.858L500.98 659.207L502.888 658.398L502.292 660.691L503.603 662.579H501.457L500.265 664.468L499.669 662.175L497.643 661.5Z" fill="#FF6ED9"/>
<path d="M656.055 678.361L658.081 678.9L659.631 677.417L659.75 679.71L661.538 680.924L659.631 681.868L659.154 684.161L657.843 682.272L655.817 682.542L656.889 680.519L656.055 678.361Z" fill="#FF6ED9"/>
<path d="M567.611 573.826L569.638 574.5L571.187 572.882L571.306 575.31L573.094 576.523L571.187 577.333L570.71 579.626L569.399 577.872L567.373 578.007L568.446 575.984L567.611 573.826Z" fill="#FF6ED9"/>
<path d="M620.296 615.91L622.322 616.449L623.872 614.965L623.991 617.258L625.779 618.472L623.872 619.282L623.395 621.575L622.084 619.821L619.938 620.091L621.13 618.068L620.296 615.91Z" fill="#FF6ED9"/>
<path d="M472.135 638.3L475.592 639.379L478.333 636.682L478.572 640.728L481.671 642.886L478.333 644.37L477.499 648.417L475.234 645.179L471.539 645.584L473.565 642.077L472.135 638.3Z" fill="#FF6ED9"/>
<path d="M546.037 679.305L552.235 684.7L559.506 681.868L557.003 690.096L561.532 697.11L553.904 696.975L549.374 704.124L547.109 695.761L539.839 693.063L546.156 688.072L546.037 679.305Z" fill="#FF6ED9"/>
<path d="M548.897 593.384L553.784 597.565L559.625 595.407L557.599 601.882L561.294 607.547L555.096 607.412L551.52 612.942L549.732 606.333L544.01 604.31L549.017 600.263L548.897 593.384Z" fill="#FF6ED9"/>
<path d="M631.262 651.114L627.925 645.314L625.898 651.789L619.938 653.542L624.706 657.858L624.587 661.231C625.422 661.77 626.256 662.175 626.971 662.714L629.474 660.826L635.196 663.389L633.527 656.779L637.46 651.384L631.262 651.114Z" fill="#FF6ED9"/>
<path d="M592.881 593.384L599.675 589.203L606.589 593.114L605.158 584.482L606.112 583.403C603.132 580.57 600.033 577.872 596.934 575.444L596.218 577.333L588.59 578.817L594.192 584.751L592.881 593.384Z" fill="#FF6ED9"/>
<path d="M1114.48 684.296C1114.48 684.296 1109.95 734.203 1127.6 792.607C1145.24 851.012 1166.69 905.37 1166.69 905.37H1184.93C1184.93 905.37 1187.91 853.98 1187.31 820.259C1186.72 786.538 1186.36 761.179 1186.36 761.179C1186.36 761.179 1200.54 776.826 1208.41 782.491C1216.28 788.156 1225.58 787.752 1236.42 785.324C1247.27 782.896 1300.67 767.924 1300.67 767.924L1299.48 751.063C1299.48 751.063 1276.23 742.566 1261.81 739.598C1247.39 736.631 1231.06 730.831 1231.06 730.831C1231.06 730.831 1224.03 708.305 1215.68 689.556C1207.34 670.807 1204 664.738 1204 664.738L1114.48 684.296Z" fill="#7B6DCF"/>
<path d="M1186.36 761.179C1186.36 761.179 1175.75 751.468 1168.6 742.7C1161.45 733.933 1155.96 724.356 1155.96 724.356C1155.96 724.356 1163.59 744.454 1173.37 755.379C1182.43 765.631 1186.48 768.193 1186.48 768.193L1186.36 761.179Z" fill="#6A5AC1"/>
<path d="M1177.42 793.012L1167.65 783.166L1180.04 783.705L1177.42 793.012Z" fill="#FF6ED9"/>
<path d="M1151.91 764.686L1156.68 756.054L1157.75 765.631L1151.91 764.686Z" fill="#FF6ED9"/>
<path d="M1177.18 886.217L1173.84 876.64L1181.35 881.361L1177.18 886.217Z" fill="#FF6ED9"/>
<path d="M1193.87 703.989L1196.01 714.645L1187.08 711.138L1193.87 703.989Z" fill="#FF6ED9"/>
<path d="M1156.56 857.352L1162.28 856.542L1159.9 862.477L1156.56 857.352Z" fill="#FF6ED9"/>
<path d="M1217.95 746.747L1223.79 745.803L1221.28 751.873L1217.95 746.747Z" fill="#FF6ED9"/>
<path d="M1241.67 757.807L1245.96 749.445L1250.25 757.133L1241.67 757.807Z" fill="#FF6ED9"/>
<path d="M1287.08 762.663L1293.04 756.324L1296.38 762.124L1287.08 762.663Z" fill="#FF6ED9"/>
<path d="M1159.78 699.403L1160.61 692.793L1165.02 697.244L1159.78 699.403Z" fill="#FF6ED9"/>
<path d="M1142.14 805.961L1151.79 817.021L1138.68 820.394L1142.14 805.961Z" fill="#FF6ED9"/>
<path d="M1196.37 738.519L1191.84 753.221L1183.38 741.352L1196.37 738.519Z" fill="#FF6ED9"/>
<path d="M1262.65 745.803L1273.73 757.538L1261.33 763.742L1262.65 745.803Z" fill="#FF6ED9"/>
<path d="M1134.75 716.938L1143.09 728.673L1146.07 716.938H1134.75Z" fill="#FF6ED9"/>
<path d="M1215.68 689.556C1215.44 688.882 1215.09 688.342 1214.85 687.668L1211.03 684.431L1211.75 707.631L1220.21 700.212C1218.78 696.705 1217.23 693.063 1215.68 689.556Z" fill="#FF6ED9"/>
<path d="M1114.01 701.156C1114.01 704.258 1114.13 707.631 1114.25 711.407L1119.85 712.351L1114.48 700.751L1114.01 701.156Z" fill="#FF6ED9"/>
<path d="M1187.31 832.668C1187.31 828.352 1187.31 824.17 1187.19 820.259C1187.19 819.449 1187.19 818.64 1187.19 817.831L1168.84 824.44L1187.31 832.668Z" fill="#FF6ED9"/>
<path d="M1235.59 768.193L1221.4 779.119L1232.25 786.268C1233.56 785.998 1234.87 785.728 1236.3 785.458C1237.38 785.189 1239.04 784.784 1240.95 784.379L1235.59 768.193Z" fill="#FF6ED9"/>
<path d="M1121.76 770.352H1134.39L1122.95 743.645L1119.49 759.696C1120.32 763.203 1121.04 766.71 1121.76 770.352Z" fill="#FF6ED9"/>
<path d="M1161.81 515.151C1181.03 515.151 1196.61 497.518 1196.61 475.765C1196.61 454.013 1181.03 436.379 1161.81 436.379C1142.58 436.379 1127 454.013 1127 475.765C1127 497.518 1142.58 515.151 1161.81 515.151Z" fill="#8C503E"/>
<path d="M1300.43 767.924C1300.43 767.924 1303.53 781.952 1305.44 788.696C1307.34 795.305 1310.92 803.668 1313.78 803.803C1316.76 803.938 1317.48 791.528 1315.81 772.645C1314.14 753.761 1315.57 751.198 1305.91 751.333C1301.62 751.333 1299.36 751.063 1299.36 751.063L1300.43 767.924Z" fill="#4E3734"/>
<path d="M1166.69 905.37C1166.69 905.37 1154.3 908.338 1147.5 911.305C1140.71 914.273 1135.46 917.51 1135.46 921.287C1135.46 924.254 1147.86 923.31 1167.17 923.31C1186.96 923.445 1192.56 923.984 1189.1 912.654C1187.91 908.742 1184.93 905.235 1184.93 905.235H1166.69V905.37Z" fill="#4E3734"/>
<path d="M1097.32 423.7C1097.32 423.7 1094.46 414.123 1094.82 408.863C1095.17 403.602 1096.6 395.509 1096.84 391.193C1097.08 386.877 1096.84 378.109 1100.18 377.84C1103.52 377.57 1106.02 383.1 1105.9 389.035C1105.78 394.97 1111.86 408.593 1109.12 415.607C1106.38 422.621 1105.07 425.588 1105.07 425.588L1097.32 423.7Z" fill="#8C503E"/>
<path d="M1301.15 535.114C1301.15 535.114 1309.61 531.877 1313.07 528.505C1316.52 525.133 1321.41 518.928 1324.39 516.095C1327.37 513.263 1333.69 508.137 1331.78 505.035C1329.87 501.933 1324.51 502.877 1320.34 506.654C1316.28 510.295 1302.93 512.993 1299.6 519.602C1296.26 526.212 1295.07 529.314 1295.07 529.314L1301.15 535.114Z" fill="#8C503E"/>
<path d="M1090.41 421.272L1110.07 426.398C1110.07 426.398 1108.17 480.621 1109.72 488.04C1111.86 497.751 1147.62 529.854 1147.62 529.854C1147.62 529.854 1186.36 530.258 1198.88 535.654C1211.39 541.049 1224.5 550.895 1236.42 551.84C1248.34 552.784 1292.21 523.514 1292.21 523.514L1306.27 539.7C1306.27 539.7 1293.76 558.449 1285.05 567.756C1273.73 579.895 1255.26 596.756 1242.38 598.779C1229.51 600.802 1189.58 583.942 1189.58 583.942C1189.58 583.942 1198.52 619.012 1205.31 634.254C1212.23 649.496 1218.78 660.556 1218.78 660.556C1218.78 660.556 1187.91 681.463 1161.81 687.263C1135.7 693.063 1106.14 687.263 1106.14 687.263C1106.14 687.263 1098.04 662.579 1104.35 622.519C1110.67 582.458 1115.08 572.612 1115.08 572.612C1115.08 572.612 1083.73 524.458 1078.73 504.765C1073.72 485.072 1090.41 421.272 1090.41 421.272Z" fill="#FF6ED9"/>
<path d="M1173.25 563.709C1173.25 563.709 1178.97 573.556 1183.02 577.603C1186.96 581.514 1189.7 583.942 1189.7 583.942L1195.78 606.063C1195.78 606.063 1184.69 596.756 1180.52 587.584C1176.11 578.277 1173.25 563.709 1173.25 563.709Z" fill="#FF5ED2"/>
<path d="M1115.08 572.342C1115.08 572.342 1119.37 558.719 1126.88 548.737C1135.46 537.542 1147.5 529.854 1147.5 529.854L1143.57 526.347C1143.57 526.347 1132.72 531.068 1123.07 543.207C1114.72 553.728 1111.27 566.677 1111.27 566.677L1115.08 572.342Z" fill="#FF5ED2"/>
<path d="M1196.73 475.765C1196.73 453.914 1181.12 436.379 1161.92 436.379C1154.06 436.379 1146.67 439.347 1140.83 444.472C1140.83 444.472 1132.36 457.286 1144.05 465.514C1155.73 473.742 1163.83 467.672 1163.83 467.672C1163.83 467.672 1166.81 470.64 1166.57 475.9C1165.98 485.747 1154.3 488.04 1154.53 500.719C1154.89 518.254 1172.18 515.556 1172.18 524.863C1172.18 532.956 1163 537.947 1162.16 548.737C1161.33 559.798 1165.98 568.026 1173.13 569.779C1196.49 575.579 1203.88 544.826 1205.07 536.193C1206.27 527.561 1203.4 510.835 1199.11 494.514C1197.8 489.254 1196.73 475.765 1196.73 475.765Z" fill="white"/>
<path d="M1116.31 346.935L1068.52 381.535L1088.62 417.1L1136.42 382.5L1116.31 346.935Z" fill="#4F3D9D"/>
<path d="M1111.62 344.658L1115.91 346.816L1131.53 382.021L1088.86 414.798L1065.38 421.272V379.188L1111.62 344.658Z" fill="white"/>
<path d="M1111.86 387.686L1064.06 422.351L1063.95 379.188L1111.62 344.658L1111.86 387.686Z" fill="#5441AF"/>
<path d="M1111.62 344.658L1116.15 347.086L1116.39 347.895L1111.62 345.872V344.658Z" fill="#4F3D9D"/>
<path d="M1114.96 347.221L1125.57 381.481L1080.04 417.226L1088.86 414.798L1131.53 382.021L1116.39 347.895L1114.96 347.221Z" fill="#F7F7F7"/>
<path d="M1103.76 412.505L1104.59 402.658L1108.05 400.095L1109 404.142L1103.76 412.505Z" fill="#8C503E"/>
<rect width="6.3395" height="21.7213" transform="matrix(-0.68529 0.728271 -0.638623 -0.769519 142.774 675.652)" fill="#FFEFF0"/>
</g>
<path d="M951.838 369.399L980.518 327.399H987.658L958.978 369.399H951.838ZM955.498 350.079C953.458 350.079 951.658 349.619 950.098 348.699C948.538 347.739 947.298 346.399 946.378 344.679C945.498 342.919 945.058 340.859 945.058 338.499C945.058 336.139 945.498 334.099 946.378 332.379C947.298 330.659 948.538 329.319 950.098 328.359C951.658 327.399 953.458 326.919 955.498 326.919C957.538 326.919 959.338 327.399 960.898 328.359C962.458 329.319 963.678 330.659 964.558 332.379C965.438 334.099 965.878 336.139 965.878 338.499C965.878 340.859 965.438 342.919 964.558 344.679C963.678 346.399 962.458 347.739 960.898 348.699C959.338 349.619 957.538 350.079 955.498 350.079ZM955.498 345.159C956.818 345.159 957.878 344.619 958.678 343.539C959.478 342.419 959.878 340.739 959.878 338.499C959.878 336.259 959.478 334.599 958.678 333.519C957.878 332.399 956.818 331.839 955.498 331.839C954.218 331.839 953.158 332.399 952.318 333.519C951.518 334.599 951.118 336.259 951.118 338.499C951.118 340.699 951.518 342.359 952.318 343.479C953.158 344.599 954.218 345.159 955.498 345.159ZM983.998 369.879C981.998 369.879 980.198 369.419 978.598 368.499C977.038 367.539 975.818 366.199 974.938 364.479C974.058 362.719 973.618 360.659 973.618 358.299C973.618 355.939 974.058 353.899 974.938 352.179C975.818 350.459 977.038 349.119 978.598 348.159C980.198 347.199 981.998 346.719 983.998 346.719C986.078 346.719 987.898 347.199 989.458 348.159C991.018 349.119 992.238 350.459 993.118 352.179C993.998 353.899 994.438 355.939 994.438 358.299C994.438 360.659 993.998 362.719 993.118 364.479C992.238 366.199 991.018 367.539 989.458 368.499C987.898 369.419 986.078 369.879 983.998 369.879ZM983.998 364.959C985.318 364.959 986.378 364.419 987.178 363.339C987.978 362.219 988.378 360.539 988.378 358.299C988.378 356.099 987.978 354.439 987.178 353.319C986.378 352.199 985.318 351.639 983.998 351.639C982.718 351.639 981.658 352.199 980.818 353.319C980.018 354.399 979.618 356.059 979.618 358.299C979.618 360.539 980.018 362.219 980.818 363.339C981.658 364.419 982.718 364.959 983.998 364.959Z" fill="#534FD2"/>
<path d="M945.878 363.003L974.558 321.003H981.698L953.018 363.003H945.878ZM949.538 343.683C947.498 343.683 945.698 343.223 944.138 342.303C942.578 341.343 941.338 340.003 940.418 338.283C939.538 336.523 939.098 334.463 939.098 332.103C939.098 329.743 939.538 327.703 940.418 325.983C941.338 324.263 942.578 322.923 944.138 321.963C945.698 321.003 947.498 320.523 949.538 320.523C951.578 320.523 953.378 321.003 954.938 321.963C956.498 322.923 957.718 324.263 958.598 325.983C959.478 327.703 959.918 329.743 959.918 332.103C959.918 334.463 959.478 336.523 958.598 338.283C957.718 340.003 956.498 341.343 954.938 342.303C953.378 343.223 951.578 343.683 949.538 343.683ZM949.538 338.763C950.858 338.763 951.918 338.223 952.718 337.143C953.518 336.023 953.918 334.343 953.918 332.103C953.918 329.863 953.518 328.203 952.718 327.123C951.918 326.003 950.858 325.443 949.538 325.443C948.258 325.443 947.198 326.003 946.358 327.123C945.558 328.203 945.158 329.863 945.158 332.103C945.158 334.303 945.558 335.963 946.358 337.083C947.198 338.203 948.258 338.763 949.538 338.763ZM978.038 363.483C976.038 363.483 974.238 363.023 972.638 362.103C971.078 361.143 969.858 359.803 968.978 358.083C968.098 356.323 967.658 354.263 967.658 351.903C967.658 349.543 968.098 347.503 968.978 345.783C969.858 344.063 971.078 342.723 972.638 341.763C974.238 340.803 976.038 340.323 978.038 340.323C980.118 340.323 981.938 340.803 983.498 341.763C985.058 342.723 986.278 344.063 987.158 345.783C988.038 347.503 988.478 349.543 988.478 351.903C988.478 354.263 988.038 356.323 987.158 358.083C986.278 359.803 985.058 361.143 983.498 362.103C981.938 363.023 980.118 363.483 978.038 363.483ZM978.038 358.563C979.358 358.563 980.418 358.023 981.218 356.943C982.018 355.823 982.418 354.143 982.418 351.903C982.418 349.703 982.018 348.043 981.218 346.923C980.418 345.803 979.358 345.243 978.038 345.243C976.758 345.243 975.698 345.803 974.858 346.923C974.058 348.003 973.658 349.663 973.658 351.903C973.658 354.143 974.058 355.823 974.858 356.943C975.698 358.023 976.758 358.563 978.038 358.563Z" fill="white"/>
<path d="M708.301 345.761C696.167 345.761 685.49 343.456 676.269 338.845C667.169 334.113 660.01 327.136 654.793 317.915C649.697 308.572 647.149 296.985 647.149 283.153C647.149 268.229 650.121 255.55 656.067 245.115C662.012 234.559 670.263 226.49 680.819 220.909C691.496 215.328 703.811 212.537 717.765 212.537C725.287 212.537 732.507 213.447 739.423 215.267C746.46 216.966 752.405 219.392 757.259 222.547L741.789 252.577C738.027 249.908 734.205 248.148 730.323 247.299C726.561 246.328 722.679 245.843 718.675 245.843C710.06 245.843 703.144 248.452 697.927 253.669C692.831 258.765 690.283 266.227 690.283 276.055C690.283 277.875 690.283 279.695 690.283 281.515C690.283 283.214 690.283 284.973 690.283 286.793L680.455 279.695C682.881 275.57 685.733 272.112 689.009 269.321C692.285 266.409 696.167 264.225 700.657 262.769C705.146 261.192 710.363 260.403 716.309 260.403C724.074 260.403 731.233 262.102 737.785 265.499C744.458 268.775 749.797 273.446 753.801 279.513C757.926 285.58 759.989 292.799 759.989 301.171C759.989 310.271 757.683 318.158 753.073 324.831C748.462 331.504 742.213 336.661 734.327 340.301C726.561 343.941 717.886 345.761 708.301 345.761ZM705.389 316.095C707.937 316.095 710.181 315.61 712.123 314.639C714.185 313.547 715.763 312.03 716.855 310.089C717.947 308.148 718.493 305.842 718.493 303.173C718.493 299.169 717.279 296.014 714.853 293.709C712.426 291.282 709.271 290.069 705.389 290.069C702.841 290.069 700.596 290.615 698.655 291.707C696.713 292.799 695.136 294.316 693.923 296.257C692.831 298.198 692.285 300.504 692.285 303.173C692.285 305.842 692.831 308.148 693.923 310.089C695.136 312.03 696.713 313.547 698.655 314.639C700.596 315.61 702.841 316.095 705.389 316.095ZM825.169 345.761C813.885 345.761 803.875 343.152 795.139 337.935C786.524 332.718 779.729 325.134 774.755 315.185C769.901 305.236 767.475 293.224 767.475 279.149C767.475 265.074 769.901 253.062 774.755 243.113C779.729 233.164 786.524 225.58 795.139 220.363C803.875 215.146 813.885 212.537 825.169 212.537C836.453 212.537 846.402 215.146 855.017 220.363C863.753 225.58 870.547 233.164 875.401 243.113C880.375 253.062 882.863 265.074 882.863 279.149C882.863 293.224 880.375 305.236 875.401 315.185C870.547 325.134 863.753 332.718 855.017 337.935C846.402 343.152 836.453 345.761 825.169 345.761ZM825.169 311.363C827.959 311.363 830.447 310.392 832.631 308.451C834.815 306.51 836.513 303.173 837.727 298.441C839.061 293.709 839.729 287.278 839.729 279.149C839.729 270.898 839.061 264.468 837.727 259.857C836.513 255.125 834.815 251.788 832.631 249.847C830.447 247.906 827.959 246.935 825.169 246.935C822.378 246.935 819.891 247.906 817.707 249.847C815.523 251.788 813.763 255.125 812.429 259.857C811.215 264.468 810.609 270.898 810.609 279.149C810.609 287.278 811.215 293.709 812.429 298.441C813.763 303.173 815.523 306.51 817.707 308.451C819.891 310.392 822.378 311.363 825.169 311.363Z" fill="#534FD2"/>
<path d="M692.805 329.131C680.672 329.131 669.994 326.826 660.773 322.215C651.673 317.483 644.514 310.507 639.297 301.285C634.201 291.943 631.653 280.355 631.653 266.523C631.653 251.599 634.626 238.92 640.571 228.485C646.516 217.929 654.767 209.861 665.323 204.279C676 198.698 688.316 195.907 702.269 195.907C709.792 195.907 717.011 196.817 723.927 198.637C730.964 200.336 736.91 202.763 741.763 205.917L726.293 235.947C722.532 233.278 718.71 231.519 714.827 230.669C711.066 229.699 707.183 229.213 703.179 229.213C694.564 229.213 687.648 231.822 682.431 237.039C677.335 242.135 674.787 249.597 674.787 259.425C674.787 261.245 674.787 263.065 674.787 264.885C674.787 266.584 674.787 268.343 674.787 270.163L664.959 263.065C667.386 258.94 670.237 255.482 673.513 252.691C676.789 249.779 680.672 247.595 685.161 246.139C689.65 244.562 694.868 243.773 700.813 243.773C708.578 243.773 715.737 245.472 722.289 248.869C728.962 252.145 734.301 256.817 738.305 262.883C742.43 268.95 744.493 276.169 744.493 284.541C744.493 293.641 742.188 301.528 737.577 308.201C732.966 314.875 726.718 320.031 718.831 323.671C711.066 327.311 702.39 329.131 692.805 329.131ZM689.893 299.465C692.441 299.465 694.686 298.98 696.627 298.009C698.69 296.917 700.267 295.401 701.359 293.459C702.451 291.518 702.997 289.213 702.997 286.543C702.997 282.539 701.784 279.385 699.357 277.079C696.93 274.653 693.776 273.439 689.893 273.439C687.345 273.439 685.1 273.985 683.159 275.077C681.218 276.169 679.64 277.686 678.427 279.627C677.335 281.569 676.789 283.874 676.789 286.543C676.789 289.213 677.335 291.518 678.427 293.459C679.64 295.401 681.218 296.917 683.159 298.009C685.1 298.98 687.345 299.465 689.893 299.465ZM809.673 329.131C798.389 329.131 788.379 326.523 779.643 321.305C771.029 316.088 764.234 308.505 759.259 298.555C754.406 288.606 751.979 276.594 751.979 262.519C751.979 248.445 754.406 236.433 759.259 226.483C764.234 216.534 771.029 208.951 779.643 203.733C788.379 198.516 798.389 195.907 809.673 195.907C820.957 195.907 830.907 198.516 839.521 203.733C848.257 208.951 855.052 216.534 859.905 226.483C864.88 236.433 867.367 248.445 867.367 262.519C867.367 276.594 864.88 288.606 859.905 298.555C855.052 308.505 848.257 316.088 839.521 321.305C830.907 326.523 820.957 329.131 809.673 329.131ZM809.673 294.733C812.464 294.733 814.951 293.763 817.135 291.821C819.319 289.88 821.018 286.543 822.231 281.811C823.566 277.079 824.233 270.649 824.233 262.519C824.233 254.269 823.566 247.838 822.231 243.227C821.018 238.495 819.319 235.159 817.135 233.217C814.951 231.276 812.464 230.305 809.673 230.305C806.883 230.305 804.395 231.276 802.211 233.217C800.027 235.159 798.268 238.495 796.933 243.227C795.72 247.838 795.113 254.269 795.113 262.519C795.113 270.649 795.72 277.079 796.933 281.811C798.268 286.543 800.027 289.88 802.211 291.821C804.395 293.763 806.883 294.733 809.673 294.733Z" fill="white"/>
<path d="M450.025 250.913C447.345 250.913 444.945 250.393 442.825 249.353C440.745 248.313 439.125 246.733 437.965 244.613C436.805 242.453 436.225 239.713 436.225 236.393V218.153H445.585V235.013C445.585 237.693 446.145 239.673 447.265 240.953C448.425 242.193 450.045 242.813 452.125 242.813C453.565 242.813 454.845 242.513 455.965 241.913C457.085 241.273 457.965 240.313 458.605 239.033C459.245 237.713 459.565 236.073 459.565 234.113V218.153H468.925V250.433H460.045V241.553L461.665 244.133C460.585 246.373 458.985 248.073 456.865 249.233C454.785 250.353 452.505 250.913 450.025 250.913ZM496.676 250.913C493.956 250.913 491.576 250.313 489.536 249.113C487.496 247.913 485.896 246.093 484.736 243.653C483.616 241.173 483.056 238.053 483.056 234.293C483.056 230.493 483.596 227.373 484.676 224.933C485.756 222.493 487.316 220.673 489.356 219.473C491.396 218.273 493.836 217.673 496.676 217.673C499.716 217.673 502.436 218.373 504.836 219.773C507.276 221.133 509.196 223.053 510.596 225.533C512.036 228.013 512.756 230.933 512.756 234.293C512.756 237.693 512.036 240.633 510.596 243.113C509.196 245.593 507.276 247.513 504.836 248.873C502.436 250.233 499.716 250.913 496.676 250.913ZM477.596 262.073V218.153H486.536V224.753L486.356 234.353L486.956 243.893V262.073H477.596ZM495.056 243.233C496.616 243.233 497.996 242.873 499.196 242.153C500.436 241.433 501.416 240.413 502.136 239.093C502.896 237.733 503.276 236.133 503.276 234.293C503.276 232.413 502.896 230.813 502.136 229.493C501.416 228.173 500.436 227.153 499.196 226.433C497.996 225.713 496.616 225.353 495.056 225.353C493.496 225.353 492.096 225.713 490.856 226.433C489.616 227.153 488.636 228.173 487.916 229.493C487.196 230.813 486.836 232.413 486.836 234.293C486.836 236.133 487.196 237.733 487.916 239.093C488.636 240.413 489.616 241.433 490.856 242.153C492.096 242.873 493.496 243.233 495.056 243.233ZM549.214 250.913C545.414 250.913 542.454 249.953 540.334 248.033C538.214 246.073 537.154 243.173 537.154 239.333V211.013H546.514V239.213C546.514 240.573 546.874 241.633 547.594 242.393C548.314 243.113 549.294 243.473 550.534 243.473C552.014 243.473 553.274 243.073 554.314 242.273L556.834 248.873C555.874 249.553 554.714 250.073 553.354 250.433C552.034 250.753 550.654 250.913 549.214 250.913ZM532.174 226.073V218.873H554.554V226.073H532.174ZM576.452 250.913C573.012 250.913 569.952 250.193 567.272 248.753C564.632 247.313 562.532 245.353 560.972 242.873C559.452 240.353 558.692 237.493 558.692 234.293C558.692 231.053 559.452 228.193 560.972 225.713C562.532 223.193 564.632 221.233 567.272 219.833C569.952 218.393 573.012 217.673 576.452 217.673C579.852 217.673 582.892 218.393 585.572 219.833C588.252 221.233 590.352 223.173 591.872 225.653C593.392 228.133 594.152 231.013 594.152 234.293C594.152 237.493 593.392 240.353 591.872 242.873C590.352 245.353 588.252 247.313 585.572 248.753C582.892 250.193 579.852 250.913 576.452 250.913ZM576.452 243.233C578.012 243.233 579.412 242.873 580.652 242.153C581.892 241.433 582.872 240.413 583.592 239.093C584.312 237.733 584.672 236.133 584.672 234.293C584.672 232.413 584.312 230.813 583.592 229.493C582.872 228.173 581.892 227.153 580.652 226.433C579.412 225.713 578.012 225.353 576.452 225.353C574.892 225.353 573.492 225.713 572.252 226.433C571.012 227.153 570.012 228.173 569.252 229.493C568.532 230.813 568.172 232.413 568.172 234.293C568.172 236.133 568.532 237.733 569.252 239.093C570.012 240.413 571.012 241.433 572.252 242.153C573.492 242.873 574.892 243.233 576.452 243.233Z" fill="#534FD2"/>
<path d="M444.065 244.517C441.385 244.517 438.985 243.997 436.865 242.957C434.785 241.917 433.165 240.337 432.005 238.217C430.845 236.057 430.265 233.317 430.265 229.997V211.757H439.625V228.617C439.625 231.297 440.185 233.277 441.305 234.557C442.465 235.797 444.085 236.417 446.165 236.417C447.605 236.417 448.885 236.117 450.005 235.517C451.125 234.877 452.005 233.917 452.645 232.637C453.285 231.317 453.605 229.677 453.605 227.717V211.757H462.965V244.037H454.085V235.157L455.705 237.737C454.625 239.977 453.025 241.677 450.905 242.837C448.825 243.957 446.545 244.517 444.065 244.517ZM490.716 244.517C487.996 244.517 485.616 243.917 483.576 242.717C481.536 241.517 479.936 239.697 478.776 237.257C477.656 234.777 477.096 231.657 477.096 227.897C477.096 224.097 477.636 220.977 478.716 218.537C479.796 216.097 481.356 214.277 483.396 213.077C485.436 211.877 487.876 211.277 490.716 211.277C493.756 211.277 496.476 211.977 498.876 213.377C501.316 214.737 503.236 216.657 504.636 219.137C506.076 221.617 506.796 224.537 506.796 227.897C506.796 231.297 506.076 234.237 504.636 236.717C503.236 239.197 501.316 241.117 498.876 242.477C496.476 243.837 493.756 244.517 490.716 244.517ZM471.636 255.677V211.757H480.576V218.357L480.396 227.957L480.996 237.497V255.677H471.636ZM489.096 236.837C490.656 236.837 492.036 236.477 493.236 235.757C494.476 235.037 495.456 234.017 496.176 232.697C496.936 231.337 497.316 229.737 497.316 227.897C497.316 226.017 496.936 224.417 496.176 223.097C495.456 221.777 494.476 220.757 493.236 220.037C492.036 219.317 490.656 218.957 489.096 218.957C487.536 218.957 486.136 219.317 484.896 220.037C483.656 220.757 482.676 221.777 481.956 223.097C481.236 224.417 480.876 226.017 480.876 227.897C480.876 229.737 481.236 231.337 481.956 232.697C482.676 234.017 483.656 235.037 484.896 235.757C486.136 236.477 487.536 236.837 489.096 236.837ZM543.254 244.517C539.454 244.517 536.494 243.557 534.374 241.637C532.254 239.677 531.194 236.777 531.194 232.937V204.617H540.554V232.817C540.554 234.177 540.914 235.237 541.634 235.997C542.354 236.717 543.334 237.077 544.574 237.077C546.054 237.077 547.314 236.677 548.354 235.877L550.874 242.477C549.914 243.157 548.754 243.677 547.394 244.037C546.074 244.357 544.694 244.517 543.254 244.517ZM526.214 219.677V212.477H548.594V219.677H526.214ZM570.493 244.517C567.053 244.517 563.993 243.797 561.313 242.357C558.673 240.917 556.573 238.957 555.013 236.477C553.493 233.957 552.733 231.097 552.733 227.897C552.733 224.657 553.493 221.797 555.013 219.317C556.573 216.797 558.673 214.837 561.313 213.437C563.993 211.997 567.053 211.277 570.493 211.277C573.893 211.277 576.933 211.997 579.613 213.437C582.293 214.837 584.393 216.777 585.913 219.257C587.433 221.737 588.193 224.617 588.193 227.897C588.193 231.097 587.433 233.957 585.913 236.477C584.393 238.957 582.293 240.917 579.613 242.357C576.933 243.797 573.893 244.517 570.493 244.517ZM570.493 236.837C572.053 236.837 573.453 236.477 574.693 235.757C575.933 235.037 576.913 234.017 577.633 232.697C578.353 231.337 578.713 229.737 578.713 227.897C578.713 226.017 578.353 224.417 577.633 223.097C576.913 221.777 575.933 220.757 574.693 220.037C573.453 219.317 572.053 218.957 570.493 218.957C568.933 218.957 567.533 219.317 566.293 220.037C565.053 220.757 564.053 221.777 563.293 223.097C562.573 224.417 562.213 226.017 562.213 227.897C562.213 229.737 562.573 231.337 563.293 232.697C564.053 234.017 565.053 235.037 566.293 235.757C567.533 236.477 568.933 236.837 570.493 236.837Z" fill="white"/>
<path d="M596.025 165.265V147.765H604.225C606.325 147.765 607.925 148.182 609.025 149.015C610.125 149.832 610.675 150.932 610.675 152.315C610.675 153.248 610.459 154.048 610.025 154.715C609.592 155.365 609.009 155.873 608.275 156.24C607.559 156.59 606.775 156.765 605.925 156.765L606.375 155.865C607.359 155.865 608.242 156.048 609.025 156.415C609.809 156.765 610.425 157.282 610.875 157.965C611.342 158.648 611.575 159.498 611.575 160.515C611.575 162.015 611 163.182 609.85 164.015C608.7 164.848 606.992 165.265 604.725 165.265H596.025ZM599.275 162.715H604.525C605.742 162.715 606.675 162.515 607.325 162.115C607.975 161.715 608.3 161.073 608.3 160.19C608.3 159.323 607.975 158.69 607.325 158.29C606.675 157.873 605.742 157.665 604.525 157.665H599.025V155.14H603.875C605.009 155.14 605.875 154.94 606.475 154.54C607.092 154.14 607.4 153.54 607.4 152.74C607.4 151.923 607.092 151.315 606.475 150.915C605.875 150.515 605.009 150.315 603.875 150.315H599.275V162.715ZM615.044 165.265V147.765H618.294V162.515H627.444V165.265H615.044ZM627.559 165.265L635.434 147.765H638.634L646.534 165.265H643.134L636.359 149.49H637.659L630.909 165.265H627.559ZM631.184 161.215L632.059 158.665H641.509L642.384 161.215H631.184ZM656.616 165.515C655.282 165.515 654.041 165.298 652.891 164.865C651.757 164.415 650.766 163.79 649.916 162.99C649.082 162.173 648.432 161.215 647.966 160.115C647.499 159.015 647.266 157.815 647.266 156.515C647.266 155.215 647.499 154.015 647.966 152.915C648.432 151.815 649.091 150.865 649.941 150.065C650.791 149.248 651.782 148.623 652.916 148.19C654.049 147.74 655.291 147.515 656.641 147.515C658.074 147.515 659.382 147.765 660.566 148.265C661.749 148.748 662.749 149.473 663.566 150.44L661.466 152.415C660.832 151.732 660.124 151.223 659.341 150.89C658.557 150.54 657.707 150.365 656.791 150.365C655.874 150.365 655.032 150.515 654.266 150.815C653.516 151.115 652.857 151.54 652.291 152.09C651.741 152.64 651.307 153.29 650.991 154.04C650.691 154.79 650.541 155.615 650.541 156.515C650.541 157.415 650.691 158.24 650.991 158.99C651.307 159.74 651.741 160.39 652.291 160.94C652.857 161.49 653.516 161.915 654.266 162.215C655.032 162.515 655.874 162.665 656.791 162.665C657.707 162.665 658.557 162.498 659.341 162.165C660.124 161.815 660.832 161.29 661.466 160.59L663.566 162.59C662.749 163.54 661.749 164.265 660.566 164.765C659.382 165.265 658.066 165.515 656.616 165.515ZM669.58 161.14L669.405 157.29L678.58 147.765H682.23L674.605 155.865L672.805 157.84L669.58 161.14ZM666.68 165.265V147.765H669.93V165.265H666.68ZM678.88 165.265L672.18 157.29L674.33 154.915L682.68 165.265H678.88ZM694.777 155.815H703.502V158.565H694.777V155.815ZM695.052 165.265H691.802V147.765H704.577V150.49H695.052V165.265ZM707.72 165.265V147.765H714.92C716.47 147.765 717.795 148.015 718.895 148.515C720.011 149.015 720.87 149.732 721.47 150.665C722.07 151.598 722.37 152.707 722.37 153.99C722.37 155.273 722.07 156.382 721.47 157.315C720.87 158.232 720.011 158.94 718.895 159.44C717.795 159.923 716.47 160.165 714.92 160.165H709.52L710.97 158.69V165.265H707.72ZM719.17 165.265L714.745 158.915H718.22L722.67 165.265H719.17ZM710.97 159.04L709.52 157.49H714.77C716.203 157.49 717.278 157.182 717.995 156.565C718.728 155.948 719.095 155.09 719.095 153.99C719.095 152.873 718.728 152.015 717.995 151.415C717.278 150.815 716.203 150.515 714.77 150.515H709.52L710.97 148.915V159.04ZM726.006 165.265V147.765H729.256V165.265H726.006ZM733.989 165.265V147.765H741.639C743.539 147.765 745.206 148.132 746.639 148.865C748.072 149.598 749.189 150.615 749.989 151.915C750.789 153.215 751.189 154.748 751.189 156.515C751.189 158.265 750.789 159.798 749.989 161.115C749.189 162.415 748.072 163.432 746.639 164.165C745.206 164.898 743.539 165.265 741.639 165.265H733.989ZM737.239 162.515H741.489C742.806 162.515 743.939 162.265 744.889 161.765C745.856 161.265 746.597 160.565 747.114 159.665C747.647 158.765 747.914 157.715 747.914 156.515C747.914 155.298 747.647 154.248 747.114 153.365C746.597 152.465 745.856 151.765 744.889 151.265C743.939 150.765 742.806 150.515 741.489 150.515H737.239V162.515ZM751.924 165.265L759.799 147.765H762.999L770.899 165.265H767.499L760.724 149.49H762.024L755.274 165.265H751.924ZM755.549 161.215L756.424 158.665H765.874L766.749 161.215H755.549ZM776.375 165.265V158.34L777.1 160.34L769.5 147.765H772.975L779.075 157.89H777.125L783.275 147.765H786.475L778.875 160.34L779.625 158.34V165.265H776.375ZM800.938 165.515C799.571 165.515 798.263 165.323 797.013 164.94C795.763 164.54 794.771 164.032 794.038 163.415L795.163 160.89C795.863 161.44 796.729 161.898 797.763 162.265C798.796 162.632 799.854 162.815 800.938 162.815C801.854 162.815 802.596 162.715 803.163 162.515C803.729 162.315 804.146 162.048 804.413 161.715C804.679 161.365 804.813 160.973 804.813 160.54C804.813 160.007 804.621 159.582 804.238 159.265C803.854 158.932 803.354 158.673 802.738 158.49C802.138 158.29 801.463 158.107 800.713 157.94C799.979 157.773 799.238 157.582 798.488 157.365C797.754 157.132 797.079 156.84 796.463 156.49C795.863 156.123 795.371 155.64 794.988 155.04C794.604 154.44 794.413 153.673 794.413 152.74C794.413 151.79 794.663 150.923 795.163 150.14C795.679 149.34 796.454 148.707 797.488 148.24C798.538 147.757 799.863 147.515 801.463 147.515C802.513 147.515 803.554 147.648 804.588 147.915C805.621 148.182 806.521 148.565 807.288 149.065L806.263 151.59C805.479 151.123 804.671 150.782 803.838 150.565C803.004 150.332 802.204 150.215 801.438 150.215C800.538 150.215 799.804 150.323 799.238 150.54C798.688 150.757 798.279 151.04 798.013 151.39C797.763 151.74 797.638 152.14 797.638 152.59C797.638 153.123 797.821 153.557 798.188 153.89C798.571 154.207 799.063 154.457 799.663 154.64C800.279 154.823 800.963 155.007 801.713 155.19C802.463 155.357 803.204 155.548 803.938 155.765C804.688 155.982 805.363 156.265 805.963 156.615C806.579 156.965 807.071 157.44 807.438 158.04C807.821 158.64 808.013 159.398 808.013 160.315C808.013 161.248 807.754 162.115 807.238 162.915C806.738 163.698 805.963 164.332 804.913 164.815C803.863 165.282 802.538 165.515 800.938 165.515ZM808.76 165.265L816.635 147.765H819.835L827.735 165.265H824.335L817.56 149.49H818.86L812.11 165.265H808.76ZM812.385 161.215L813.26 158.665H822.71L823.585 161.215H812.385ZM829.961 165.265V147.765H833.211V162.515H842.361V165.265H829.961ZM847.927 155.04H856.627V157.715H847.927V155.04ZM848.177 162.54H858.052V165.265H844.927V147.765H857.702V150.49H848.177V162.54Z" fill="#1C2A39"/>
<defs>
<filter id="filter0_d_4_437" x="0" y="0" width="1453" height="1016" filterUnits="userSpaceOnUse" color-interpolation-filters="sRGB">
<feFlood flood-opacity="0" result="BackgroundImageFix"/>
<feColorMatrix in="SourceAlpha" type="matrix" values="0 0 0 0 0 0 0 0 0 0 0 0 0 0 0 0 0 0 127 0" result="hardAlpha"/>
<feOffset dy="6"/>
<feGaussianBlur stdDeviation="29.5"/>
<feColorMatrix type="matrix" values="0 0 0 0 0.208402 0 0 0 0 0.190642 0 0 0 0 0.329167 0 0 0 0.08 0"/>
<feBlend mode="normal" in2="BackgroundImageFix" result="effect1_dropShadow_4_437"/>
<feBlend mode="normal" in="SourceGraphic" in2="effect1_dropShadow_4_437" result="shape"/>
</filter>
<clipPath id="clip0_4_437">
<rect width="1211.15" height="578.787" fill="white" transform="translate(120.982 344.658)"/>
</clipPath>
</defs>
</svg>
